<?xml version="1.0" encoding="UTF-8" standalone="no"?>
<!-- Created with Inkscape (http://www.inkscape.org/) -->
<svg
   xmlns:svg="http://www.w3.org/2000/svg"
   xmlns="http://www.w3.org/2000/svg"
   xmlns:xlink="http://www.w3.org/1999/xlink"
   version="1.0"
   width="1052.3622"
   height="744.09448"
   id="svg2">
  <defs
     id="defs4">
    <marker
       refX="0"
       refY="0"
       orient="auto"
       id="Arrow2Mstart"
       style="overflow:visible">
      <path
         d="M 8.7185878,4.0337352 L -2.2072895,0.016013256 L 8.7185884,-4.0017078 C 6.97309,-1.6296469 6.9831476,1.6157441 8.7185878,4.0337352 z"
         transform="scale(0.6,0.6)"
         id="path3192"
         style="font-size:12px;fill-rule:evenodd;stroke-width:0.625;stroke-linejoin:round" />
    </marker>
    <marker
       refX="0"
       refY="0"
       orient="auto"
       id="Arrow2Sstart"
       style="overflow:visible">
      <path
         d="M 8.7185878,4.0337352 L -2.2072895,0.016013256 L 8.7185884,-4.0017078 C 6.97309,-1.6296469 6.9831476,1.6157441 8.7185878,4.0337352 z"
         transform="matrix(0.3,0,0,0.3,-0.69,0)"
         id="path3198"
         style="font-size:12px;fill-rule:evenodd;stroke-width:0.625;stroke-linejoin:round" />
    </marker>
    <marker
       refX="0"
       refY="0"
       orient="auto"
       id="Arrow2Lstart"
       style="overflow:visible">
      <path
         d="M 8.7185878,4.0337352 L -2.2072895,0.016013256 L 8.7185884,-4.0017078 C 6.97309,-1.6296469 6.9831476,1.6157441 8.7185878,4.0337352 z"
         transform="matrix(1.1,0,0,1.1,1.1,0)"
         id="path3186"
         style="font-size:12px;fill-rule:evenodd;stroke-width:0.625;stroke-linejoin:round" />
    </marker>
    <marker
       refX="0"
       refY="0"
       orient="auto"
       id="Arrow2Mend"
       style="overflow:visible">
      <path
         d="M 8.7185878,4.0337352 L -2.2072895,0.016013256 L 8.7185884,-4.0017078 C 6.97309,-1.6296469 6.9831476,1.6157441 8.7185878,4.0337352 z"
         transform="scale(-0.6,-0.6)"
         id="path3195"
         style="font-size:12px;fill-rule:evenodd;stroke-width:0.625;stroke-linejoin:round" />
    </marker>
    <marker
       refX="0"
       refY="0"
       orient="auto"
       id="Arrow1Mend"
       style="overflow:visible">
      <path
         d="M 0,0 L 5,-5 L -12.5,0 L 5,5 L 0,0 z"
         transform="matrix(-0.4,0,0,-0.4,-4,0)"
         id="path3177"
         style="fill-rule:evenodd;stroke:#000000;stroke-width:1pt;marker-start:none" />
    </marker>
  </defs>
  <g
     id="layer1">
    <path
       d="M 360,324.09448 L 400,324.09448 L 400,464.09448"
       id="path2391"
       style="fill:none;fill-rule:evenodd;stroke:#000000;stroke-width:5;stroke-linecap:butt;stroke-linejoin:miter;marker-end:url(#Arrow2Mend);stroke-miterlimit:4;stroke-dasharray:none;stroke-opacity:1" />
    <path
       d="M 100,484.09448 L 380,484.09448"
       id="path2393"
       style="fill:none;fill-rule:evenodd;stroke:#000000;stroke-width:5;stroke-linecap:butt;stroke-linejoin:miter;marker-end:url(#Arrow2Mend);stroke-miterlimit:4;stroke-dasharray:none;stroke-opacity:1" />
    <path
       d="M 380,484.09448 A 20,20 0 1 1 340,484.09448 A 20,20 0 1 1 380,484.09448 z"
       transform="translate(40,0)"
       id="path2389"
       style="fill:#ffffff;fill-opacity:1;stroke:#000000;stroke-width:5;stroke-miterlimit:4;stroke-dasharray:none;stroke-opacity:1" />
    <path
       d="M 100.18622,288.09461 L 180.12453,288.09461"
       id="path5502"
       style="fill:none;fill-rule:evenodd;stroke:#000000;stroke-width:5;stroke-linecap:butt;stroke-linejoin:miter;marker-end:url(#Arrow2Mend);stroke-miterlimit:4;stroke-dasharray:none;stroke-opacity:1" />
    <path
       d="M 99.851177,344.09652 L 176.00442,344.09652"
       id="path5504"
       style="fill:none;fill-rule:evenodd;stroke:#000000;stroke-width:5;stroke-linecap:butt;stroke-linejoin:miter;marker-end:url(#Arrow2Mend);stroke-miterlimit:4;stroke-dasharray:none;stroke-opacity:1" />
    <rect
       width="179.401"
       height="100.651"
       x="180.2995"
       y="263.14398"
       id="rect2385"
       style="fill:#ffffff;fill-opacity:1;stroke:#000000;stroke-width:5;stroke-miterlimit:4;stroke-dasharray:none;stroke-opacity:1" />
    <path
       d="M 679.70046,325.04495 L 639.70046,325.04495 L 639.70046,465.04495"
       id="path5506"
       style="fill:none;fill-rule:evenodd;stroke:#000000;stroke-width:5;stroke-linecap:butt;stroke-linejoin:miter;marker-end:url(#Arrow2Mend);stroke-miterlimit:4;stroke-dasharray:none;stroke-opacity:1" />
    <path
       d="M 939.70046,485.04495 L 659.70046,485.04495"
       id="path5508"
       style="fill:none;fill-rule:evenodd;stroke:#000000;stroke-width:5;stroke-linecap:butt;stroke-linejoin:miter;marker-start:url(#Arrow2Mstart);marker-end:none;stroke-miterlimit:4;stroke-dasharray:none;stroke-opacity:1" />
    <path
       d="M 380,484.09448 A 20,20 0 1 1 340,484.09448 A 20,20 0 1 1 380,484.09448 z"
       transform="matrix(-1,0,0,1,999.70046,0.9504771)"
       id="path5510"
       style="fill:#ffffff;fill-opacity:1;stroke:#000000;stroke-width:5;stroke-miterlimit:4;stroke-dasharray:none;stroke-opacity:1" />
    <path
       d="M 939.51424,289.04508 L 859.57593,289.04508"
       id="path5512"
       style="fill:none;fill-rule:evenodd;stroke:#000000;stroke-width:5;stroke-linecap:butt;stroke-linejoin:miter;marker-end:url(#Arrow2Mend);stroke-miterlimit:4;stroke-dasharray:none;stroke-opacity:1" />
    <path
       d="M 939.84928,345.04699 L 863.69604,345.04699"
       id="path5514"
       style="fill:none;fill-rule:evenodd;stroke:#000000;stroke-width:5;stroke-linecap:butt;stroke-linejoin:miter;marker-end:url(#Arrow2Mend);stroke-miterlimit:4;stroke-dasharray:none;stroke-opacity:1" />
    <rect
       width="179.401"
       height="100.651"
       x="-859.401"
       y="264.09448"
       transform="scale(-1,1)"
       id="rect5516"
       style="fill:#ffffff;fill-opacity:1;stroke:#000000;stroke-width:5;stroke-miterlimit:4;stroke-dasharray:none;stroke-opacity:1" />
    <path
       d="M 618.93427,484.09625 L 419.64766,484.09625"
       id="path8692"
       style="fill:none;fill-rule:evenodd;stroke:#000000;stroke-width:5;stroke-linecap:butt;stroke-linejoin:miter;marker-start:url(#Arrow2Mstart);marker-end:none;stroke-miterlimit:4;stroke-dasharray:none;stroke-opacity:1" />
    <g
       transform="scale(10,10)"
       id="g8990">
      <defs
         id="defs8992">
        <g
           id="g8994">
          <symbol
             id="textext-7cb62114-0"
             style="overflow:visible">
            <path
               d=""
               id="path8997"
               style="stroke:none" />
          </symbol>
          <symbol
             id="textext-7cb62114-1"
             style="overflow:visible">
            <path
               d="M 2.25,-6.03125 C 2.25,-6.390625 2.265625,-6.5 3.0625,-6.5 L 3.3125,-6.5 L 3.3125,-6.8125 C 2.96875,-6.78125 2.1875,-6.78125 1.796875,-6.78125 C 1.421875,-6.78125 0.625,-6.78125 0.28125,-6.8125 L 0.28125,-6.5 L 0.53125,-6.5 C 1.328125,-6.5 1.359375,-6.390625 1.359375,-6.03125 L 1.359375,-0.78125 C 1.359375,-0.421875 1.328125,-0.3125 0.53125,-0.3125 L 0.28125,-0.3125 L 0.28125,0 C 0.625,-0.03125 1.421875,-0.03125 1.796875,-0.03125 C 2.1875,-0.03125 2.96875,-0.03125 3.3125,0 L 3.3125,-0.3125 L 3.0625,-0.3125 C 2.265625,-0.3125 2.25,-0.421875 2.25,-0.78125 L 2.25,-6.03125 z"
               id="path9000"
               style="stroke:none" />
          </symbol>
          <symbol
             id="textext-7cb62114-2"
             style="overflow:visible">
            <path
               d="M 6.1875,-5.828125 C 6.328125,-6.203125 6.59375,-6.484375 7.28125,-6.5 L 7.28125,-6.8125 C 6.96875,-6.78125 6.5625,-6.78125 6.3125,-6.78125 C 6.015625,-6.78125 5.4375,-6.796875 5.171875,-6.8125 L 5.171875,-6.5 C 5.6875,-6.484375 5.90625,-6.234375 5.90625,-6 C 5.90625,-5.921875 5.875,-5.859375 5.859375,-5.796875 L 4.03125,-1 L 2.125,-6.03125 C 2.0625,-6.171875 2.0625,-6.1875 2.0625,-6.203125 C 2.0625,-6.5 2.625,-6.5 2.875,-6.5 L 2.875,-6.8125 C 2.515625,-6.78125 1.828125,-6.78125 1.453125,-6.78125 C 0.984375,-6.78125 0.546875,-6.796875 0.1875,-6.8125 L 0.1875,-6.5 C 0.84375,-6.5 1.03125,-6.5 1.171875,-6.125 L 3.484375,0 C 3.546875,0.1875 3.59375,0.21875 3.734375,0.21875 C 3.890625,0.21875 3.921875,0.171875 3.96875,0.03125 L 6.1875,-5.828125 z"
               id="path9003"
               style="stroke:none" />
          </symbol>
        </g>
      </defs>
      <g
         id="textext-7cb62114-3">
        <g
           id="g9006"
           style="fill:#000000;fill-opacity:1">
          <use
             id="use9008"
             x="223.43201"
             y="134.765"
             width="1052.3622"
             height="744.09448"
             xlink:href="#textext-7cb62114-1" />
          <use
             id="use9010"
             x="227.0295"
             y="134.765"
             width="1052.3622"
             height="744.09448"
             xlink:href="#textext-7cb62114-2" />
        </g>
      </g>
    </g>
    <g
       transform="matrix(4,0,0,4,-497.3125,-241.28052)"
       id="g9705">
      <defs
         id="defs9707">
        <g
           id="g9709">
          <symbol
             id="textext-589e0ab7-0"
             style="overflow:visible">
            <path
               d=""
               id="path9712"
               style="stroke:none" />
          </symbol>
          <symbol
             id="textext-589e0ab7-1"
             style="overflow:visible">
            <path
               d="M 2.640625,-2.921875 C 2.640625,-3.046875 2.640625,-3.109375 2.546875,-3.109375 C 2.515625,-3.109375 2.5,-3.109375 2.40625,-3.03125 C 2.390625,-3.015625 2.328125,-2.953125 2.28125,-2.921875 C 2.0625,-3.0625 1.8125,-3.109375 1.546875,-3.109375 C 0.546875,-3.109375 0.3125,-2.578125 0.3125,-2.234375 C 0.3125,-2.015625 0.40625,-1.828125 0.578125,-1.6875 C 0.84375,-1.46875 1.109375,-1.421875 1.546875,-1.34375 C 1.890625,-1.28125 2.453125,-1.1875 2.453125,-0.71875 C 2.453125,-0.453125 2.265625,-0.125 1.59375,-0.125 C 0.921875,-0.125 0.6875,-0.5625 0.5625,-1.03125 C 0.53125,-1.125 0.53125,-1.15625 0.4375,-1.15625 C 0.3125,-1.15625 0.3125,-1.109375 0.3125,-0.96875 L 0.3125,-0.109375 C 0.3125,0 0.3125,0.0625 0.40625,0.0625 C 0.46875,0.0625 0.609375,-0.078125 0.75,-0.234375 C 1.046875,0.0625 1.421875,0.0625 1.59375,0.0625 C 2.5,0.0625 2.84375,-0.421875 2.84375,-0.90625 C 2.84375,-1.171875 2.71875,-1.390625 2.53125,-1.546875 C 2.265625,-1.796875 1.953125,-1.859375 1.703125,-1.890625 C 1.15625,-2 0.703125,-2.078125 0.703125,-2.453125 C 0.703125,-2.671875 0.890625,-2.9375 1.546875,-2.9375 C 2.359375,-2.9375 2.390625,-2.375 2.40625,-2.171875 C 2.40625,-2.09375 2.5,-2.09375 2.515625,-2.09375 C 2.640625,-2.09375 2.640625,-2.140625 2.640625,-2.28125 L 2.640625,-2.921875 z"
               id="path9715"
               style="stroke:none" />
          </symbol>
          <symbol
             id="textext-589e0ab7-2"
             style="overflow:visible">
            <path
               d="M 1.40625,-2.75 L 2.484375,-2.75 L 2.484375,-3 L 1.40625,-3 L 1.40625,-4.28125 L 1.15625,-4.28125 C 1.15625,-3.65625 0.875,-2.96875 0.203125,-2.953125 L 0.203125,-2.75 L 0.84375,-2.75 L 0.84375,-0.875 C 0.84375,-0.09375 1.4375,0.0625 1.828125,0.0625 C 2.296875,0.0625 2.609375,-0.328125 2.609375,-0.875 L 2.609375,-1.265625 L 2.375,-1.265625 L 2.375,-0.890625 C 2.375,-0.40625 2.15625,-0.15625 1.875,-0.15625 C 1.40625,-0.15625 1.40625,-0.734375 1.40625,-0.859375 L 1.40625,-2.75 z"
               id="path9718"
               style="stroke:none" />
          </symbol>
          <symbol
             id="textext-589e0ab7-3"
             style="overflow:visible">
            <path
               d="M 1.390625,-1.59375 C 1.390625,-2.171875 1.65625,-2.875 2.328125,-2.875 C 2.265625,-2.828125 2.203125,-2.734375 2.203125,-2.625 C 2.203125,-2.390625 2.390625,-2.3125 2.515625,-2.3125 C 2.6875,-2.3125 2.84375,-2.421875 2.84375,-2.625 C 2.84375,-2.859375 2.609375,-3.078125 2.28125,-3.078125 C 1.9375,-3.078125 1.546875,-2.859375 1.34375,-2.328125 L 1.34375,-2.328125 L 1.34375,-3.078125 L 0.34375,-3 L 0.34375,-2.75 C 0.8125,-2.75 0.859375,-2.703125 0.859375,-2.359375 L 0.859375,-0.546875 C 0.859375,-0.25 0.796875,-0.25 0.34375,-0.25 L 0.34375,0 C 0.375,0 0.84375,-0.03125 1.140625,-0.03125 C 1.4375,-0.03125 1.734375,-0.015625 2.046875,0 L 2.046875,-0.25 L 1.90625,-0.25 C 1.390625,-0.25 1.390625,-0.328125 1.390625,-0.5625 L 1.390625,-1.59375 z"
               id="path9721"
               style="stroke:none" />
          </symbol>
          <symbol
             id="textext-589e0ab7-4"
             style="overflow:visible">
            <path
               d=""
               id="path9724"
               style="stroke:none" />
          </symbol>
          <symbol
             id="textext-589e0ab7-5"
             style="overflow:visible">
            <path
               d="M 5.078125,-4.03125 C 5.0625,-4.0625 5.03125,-4.140625 5.03125,-4.171875 C 5.03125,-4.171875 5.203125,-4.3125 5.3125,-4.390625 L 7.0625,-5.734375 C 8,-6.4375 8.390625,-6.46875 8.6875,-6.5 C 8.765625,-6.515625 8.859375,-6.515625 8.859375,-6.703125 C 8.859375,-6.734375 8.828125,-6.8125 8.75,-6.8125 C 8.53125,-6.8125 8.28125,-6.78125 8.046875,-6.78125 C 7.6875,-6.78125 7.296875,-6.8125 6.9375,-6.8125 C 6.875,-6.8125 6.75,-6.8125 6.75,-6.609375 C 6.75,-6.546875 6.796875,-6.515625 6.875,-6.5 C 7.09375,-6.484375 7.171875,-6.4375 7.171875,-6.296875 C 7.171875,-6.109375 6.875,-5.875 6.8125,-5.828125 L 2.9375,-2.84375 L 3.734375,-6.046875 C 3.8125,-6.40625 3.84375,-6.5 4.5625,-6.5 C 4.8125,-6.5 4.90625,-6.5 4.90625,-6.703125 C 4.90625,-6.78125 4.828125,-6.8125 4.765625,-6.8125 C 4.484375,-6.8125 3.765625,-6.78125 3.484375,-6.78125 C 3.203125,-6.78125 2.5,-6.8125 2.203125,-6.8125 C 2.140625,-6.8125 2,-6.8125 2,-6.625 C 2,-6.5 2.09375,-6.5 2.296875,-6.5 C 2.421875,-6.5 2.609375,-6.484375 2.71875,-6.484375 C 2.875,-6.453125 2.9375,-6.4375 2.9375,-6.3125 C 2.9375,-6.28125 2.9375,-6.25 2.90625,-6.125 L 1.5625,-0.78125 C 1.46875,-0.390625 1.453125,-0.3125 0.65625,-0.3125 C 0.484375,-0.3125 0.375,-0.3125 0.375,-0.125 C 0.375,0 0.5,0 0.53125,0 C 0.8125,0 1.515625,-0.03125 1.796875,-0.03125 C 2,-0.03125 2.21875,-0.015625 2.4375,-0.015625 C 2.65625,-0.015625 2.875,0 3.078125,0 C 3.15625,0 3.28125,0 3.28125,-0.203125 C 3.28125,-0.3125 3.1875,-0.3125 3,-0.3125 C 2.625,-0.3125 2.359375,-0.3125 2.359375,-0.484375 C 2.359375,-0.5625 2.40625,-0.78125 2.4375,-0.921875 C 2.578125,-1.453125 2.71875,-1.96875 2.84375,-2.5 L 4.328125,-3.65625 C 4.578125,-3.046875 5.234375,-1.5625 5.484375,-0.96875 C 5.609375,-0.703125 5.609375,-0.671875 5.609375,-0.625 C 5.609375,-0.3125 5.171875,-0.3125 5.078125,-0.3125 C 4.96875,-0.3125 4.859375,-0.3125 4.859375,-0.109375 C 4.859375,0 4.984375,0 5,0 C 5.40625,0 5.828125,-0.03125 6.21875,-0.03125 C 6.4375,-0.03125 6.984375,0 7.203125,0 C 7.25,0 7.375,0 7.375,-0.203125 C 7.375,-0.3125 7.265625,-0.3125 7.171875,-0.3125 C 6.765625,-0.3125 6.640625,-0.40625 6.484375,-0.75 L 5.078125,-4.03125 z"
               id="path9727"
               style="stroke:none" />
          </symbol>
        </g>
      </defs>
      <g
         id="textext-589e0ab7-6">
        <g
           id="g9730"
           style="fill:#000000;fill-opacity:1">
          <use
             id="use9732"
             x="223.43201"
             y="134.765"
             width="1052.3622"
             height="744.09448"
             xlink:href="#textext-589e0ab7-5" />
        </g>
        <g
           id="g9734"
           style="fill:#000000;fill-opacity:1">
          <use
             id="use9736"
             x="231.89301"
             y="136.259"
             width="1052.3622"
             height="744.09448"
             xlink:href="#textext-589e0ab7-1" />
          <use
             id="use9738"
             x="235.04935"
             y="136.259"
             width="1052.3622"
             height="744.09448"
             xlink:href="#textext-589e0ab7-2" />
          <use
             id="use9740"
             x="238.16245"
             y="136.259"
             width="1052.3622"
             height="744.09448"
             xlink:href="#textext-589e0ab7-3" />
        </g>
      </g>
    </g>
    <g
       transform="matrix(4,0,0,4,-320.3125,-239.78052)"
       id="g9851">
      <defs
         id="defs9853">
        <g
           id="g9855">
          <symbol
             id="symbol9857"
             style="overflow:visible">
            <path
               d=""
               id="path9859"
               style="stroke:none" />
          </symbol>
          <symbol
             id="symbol9861"
             style="overflow:visible">
            <path
               d="M 2.640625,-2.921875 C 2.640625,-3.046875 2.640625,-3.109375 2.546875,-3.109375 C 2.515625,-3.109375 2.5,-3.109375 2.40625,-3.03125 C 2.390625,-3.015625 2.328125,-2.953125 2.28125,-2.921875 C 2.0625,-3.0625 1.8125,-3.109375 1.546875,-3.109375 C 0.546875,-3.109375 0.3125,-2.578125 0.3125,-2.234375 C 0.3125,-2.015625 0.40625,-1.828125 0.578125,-1.6875 C 0.84375,-1.46875 1.109375,-1.421875 1.546875,-1.34375 C 1.890625,-1.28125 2.453125,-1.1875 2.453125,-0.71875 C 2.453125,-0.453125 2.265625,-0.125 1.59375,-0.125 C 0.921875,-0.125 0.6875,-0.5625 0.5625,-1.03125 C 0.53125,-1.125 0.53125,-1.15625 0.4375,-1.15625 C 0.3125,-1.15625 0.3125,-1.109375 0.3125,-0.96875 L 0.3125,-0.109375 C 0.3125,0 0.3125,0.0625 0.40625,0.0625 C 0.46875,0.0625 0.609375,-0.078125 0.75,-0.234375 C 1.046875,0.0625 1.421875,0.0625 1.59375,0.0625 C 2.5,0.0625 2.84375,-0.421875 2.84375,-0.90625 C 2.84375,-1.171875 2.71875,-1.390625 2.53125,-1.546875 C 2.265625,-1.796875 1.953125,-1.859375 1.703125,-1.890625 C 1.15625,-2 0.703125,-2.078125 0.703125,-2.453125 C 0.703125,-2.671875 0.890625,-2.9375 1.546875,-2.9375 C 2.359375,-2.9375 2.390625,-2.375 2.40625,-2.171875 C 2.40625,-2.09375 2.5,-2.09375 2.515625,-2.09375 C 2.640625,-2.09375 2.640625,-2.140625 2.640625,-2.28125 L 2.640625,-2.921875 z"
               id="path9863"
               style="stroke:none" />
          </symbol>
          <symbol
             id="symbol9865"
             style="overflow:visible">
            <path
               d="M 1.40625,-2.75 L 2.484375,-2.75 L 2.484375,-3 L 1.40625,-3 L 1.40625,-4.28125 L 1.15625,-4.28125 C 1.15625,-3.65625 0.875,-2.96875 0.203125,-2.953125 L 0.203125,-2.75 L 0.84375,-2.75 L 0.84375,-0.875 C 0.84375,-0.09375 1.4375,0.0625 1.828125,0.0625 C 2.296875,0.0625 2.609375,-0.328125 2.609375,-0.875 L 2.609375,-1.265625 L 2.375,-1.265625 L 2.375,-0.890625 C 2.375,-0.40625 2.15625,-0.15625 1.875,-0.15625 C 1.40625,-0.15625 1.40625,-0.734375 1.40625,-0.859375 L 1.40625,-2.75 z"
               id="path9867"
               style="stroke:none" />
          </symbol>
          <symbol
             id="symbol9869"
             style="overflow:visible">
            <path
               d="M 1.390625,-1.59375 C 1.390625,-2.171875 1.65625,-2.875 2.328125,-2.875 C 2.265625,-2.828125 2.203125,-2.734375 2.203125,-2.625 C 2.203125,-2.390625 2.390625,-2.3125 2.515625,-2.3125 C 2.6875,-2.3125 2.84375,-2.421875 2.84375,-2.625 C 2.84375,-2.859375 2.609375,-3.078125 2.28125,-3.078125 C 1.9375,-3.078125 1.546875,-2.859375 1.34375,-2.328125 L 1.34375,-2.328125 L 1.34375,-3.078125 L 0.34375,-3 L 0.34375,-2.75 C 0.8125,-2.75 0.859375,-2.703125 0.859375,-2.359375 L 0.859375,-0.546875 C 0.859375,-0.25 0.796875,-0.25 0.34375,-0.25 L 0.34375,0 C 0.375,0 0.84375,-0.03125 1.140625,-0.03125 C 1.4375,-0.03125 1.734375,-0.015625 2.046875,0 L 2.046875,-0.25 L 1.90625,-0.25 C 1.390625,-0.25 1.390625,-0.328125 1.390625,-0.5625 L 1.390625,-1.59375 z"
               id="path9871"
               style="stroke:none" />
          </symbol>
          <symbol
             id="symbol9873"
             style="overflow:visible">
            <path
               d=""
               id="path9875"
               style="stroke:none" />
          </symbol>
          <symbol
             id="symbol9877"
             style="overflow:visible">
            <path
               d="M 5.078125,-4.03125 C 5.0625,-4.0625 5.03125,-4.140625 5.03125,-4.171875 C 5.03125,-4.171875 5.203125,-4.3125 5.3125,-4.390625 L 7.0625,-5.734375 C 8,-6.4375 8.390625,-6.46875 8.6875,-6.5 C 8.765625,-6.515625 8.859375,-6.515625 8.859375,-6.703125 C 8.859375,-6.734375 8.828125,-6.8125 8.75,-6.8125 C 8.53125,-6.8125 8.28125,-6.78125 8.046875,-6.78125 C 7.6875,-6.78125 7.296875,-6.8125 6.9375,-6.8125 C 6.875,-6.8125 6.75,-6.8125 6.75,-6.609375 C 6.75,-6.546875 6.796875,-6.515625 6.875,-6.5 C 7.09375,-6.484375 7.171875,-6.4375 7.171875,-6.296875 C 7.171875,-6.109375 6.875,-5.875 6.8125,-5.828125 L 2.9375,-2.84375 L 3.734375,-6.046875 C 3.8125,-6.40625 3.84375,-6.5 4.5625,-6.5 C 4.8125,-6.5 4.90625,-6.5 4.90625,-6.703125 C 4.90625,-6.78125 4.828125,-6.8125 4.765625,-6.8125 C 4.484375,-6.8125 3.765625,-6.78125 3.484375,-6.78125 C 3.203125,-6.78125 2.5,-6.8125 2.203125,-6.8125 C 2.140625,-6.8125 2,-6.8125 2,-6.625 C 2,-6.5 2.09375,-6.5 2.296875,-6.5 C 2.421875,-6.5 2.609375,-6.484375 2.71875,-6.484375 C 2.875,-6.453125 2.9375,-6.4375 2.9375,-6.3125 C 2.9375,-6.28125 2.9375,-6.25 2.90625,-6.125 L 1.5625,-0.78125 C 1.46875,-0.390625 1.453125,-0.3125 0.65625,-0.3125 C 0.484375,-0.3125 0.375,-0.3125 0.375,-0.125 C 0.375,0 0.5,0 0.53125,0 C 0.8125,0 1.515625,-0.03125 1.796875,-0.03125 C 2,-0.03125 2.21875,-0.015625 2.4375,-0.015625 C 2.65625,-0.015625 2.875,0 3.078125,0 C 3.15625,0 3.28125,0 3.28125,-0.203125 C 3.28125,-0.3125 3.1875,-0.3125 3,-0.3125 C 2.625,-0.3125 2.359375,-0.3125 2.359375,-0.484375 C 2.359375,-0.5625 2.40625,-0.78125 2.4375,-0.921875 C 2.578125,-1.453125 2.71875,-1.96875 2.84375,-2.5 L 4.328125,-3.65625 C 4.578125,-3.046875 5.234375,-1.5625 5.484375,-0.96875 C 5.609375,-0.703125 5.609375,-0.671875 5.609375,-0.625 C 5.609375,-0.3125 5.171875,-0.3125 5.078125,-0.3125 C 4.96875,-0.3125 4.859375,-0.3125 4.859375,-0.109375 C 4.859375,0 4.984375,0 5,0 C 5.40625,0 5.828125,-0.03125 6.21875,-0.03125 C 6.4375,-0.03125 6.984375,0 7.203125,0 C 7.25,0 7.375,0 7.375,-0.203125 C 7.375,-0.3125 7.265625,-0.3125 7.171875,-0.3125 C 6.765625,-0.3125 6.640625,-0.40625 6.484375,-0.75 L 5.078125,-4.03125 z"
               id="path9879"
               style="stroke:none" />
          </symbol>
        </g>
      </defs>
      <g
         id="g9881">
        <g
           id="g9883"
           style="fill:#000000;fill-opacity:1">
          <use
             id="use9885"
             x="223.43201"
             y="134.765"
             width="1052.3622"
             height="744.09448"
             xlink:href="#textext-589e0ab7-5" />
        </g>
        <g
           id="g9887"
           style="fill:#000000;fill-opacity:1">
          <use
             id="use9889"
             x="231.89301"
             y="136.259"
             width="1052.3622"
             height="744.09448"
             xlink:href="#textext-589e0ab7-1" />
          <use
             id="use9891"
             x="235.04935"
             y="136.259"
             width="1052.3622"
             height="744.09448"
             xlink:href="#textext-589e0ab7-2" />
          <use
             id="use9893"
             x="238.16245"
             y="136.259"
             width="1052.3622"
             height="744.09448"
             xlink:href="#textext-589e0ab7-3" />
        </g>
      </g>
    </g>
    <path
       d="M 400,464.09448 L 400,504.09448"
       id="path9919"
       style="fill:none;fill-rule:evenodd;stroke:#000000;stroke-width:5;stroke-linecap:butt;stroke-linejoin:miter;stroke-miterlimit:4;stroke-dasharray:none;stroke-opacity:1" />
    <path
       d="M 380,484.09448 L 420,484.09448"
       id="path9921"
       style="fill:none;fill-rule:evenodd;stroke:#000000;stroke-width:5;stroke-linecap:butt;stroke-linejoin:miter;stroke-miterlimit:4;stroke-dasharray:none;stroke-opacity:1" />
    <path
       d="M 640,464.09448 L 640,504.09448"
       id="path9923"
       style="fill:none;fill-rule:evenodd;stroke:#000000;stroke-width:5;stroke-linecap:butt;stroke-linejoin:miter;stroke-miterlimit:4;stroke-dasharray:none;stroke-opacity:1" />
    <path
       d="M 620,484.09448 L 660,484.09448"
       id="path9925"
       style="fill:none;fill-rule:evenodd;stroke:#000000;stroke-width:5;stroke-linecap:butt;stroke-linejoin:miter;stroke-miterlimit:4;stroke-dasharray:none;stroke-opacity:1" />
    <path
       d="M 518,44.094482 L 518,664.09448"
       id="path9927"
       style="fill:none;fill-rule:evenodd;stroke:#000000;stroke-width:5;stroke-linecap:butt;stroke-linejoin:miter;stroke-miterlimit:4;stroke-dasharray:20, 20;stroke-dashoffset:0;stroke-opacity:1" />
    <g
       transform="matrix(4,0,0,4,-837.3125,-241.28052)"
       id="g10049">
      <defs
         id="defs10051">
        <g
           id="g10053">
          <symbol
             id="textext-bcbb8cab-0"
             style="overflow:visible">
            <path
               d=""
               id="path10056"
               style="stroke:none" />
          </symbol>
          <symbol
             id="textext-bcbb8cab-1"
             style="overflow:visible">
            <path
               d="M 5.078125,-4.03125 C 5.0625,-4.0625 5.03125,-4.140625 5.03125,-4.171875 C 5.03125,-4.171875 5.203125,-4.3125 5.3125,-4.390625 L 7.0625,-5.734375 C 8,-6.4375 8.390625,-6.46875 8.6875,-6.5 C 8.765625,-6.515625 8.859375,-6.515625 8.859375,-6.703125 C 8.859375,-6.734375 8.828125,-6.8125 8.75,-6.8125 C 8.53125,-6.8125 8.28125,-6.78125 8.046875,-6.78125 C 7.6875,-6.78125 7.296875,-6.8125 6.9375,-6.8125 C 6.875,-6.8125 6.75,-6.8125 6.75,-6.609375 C 6.75,-6.546875 6.796875,-6.515625 6.875,-6.5 C 7.09375,-6.484375 7.171875,-6.4375 7.171875,-6.296875 C 7.171875,-6.109375 6.875,-5.875 6.8125,-5.828125 L 2.9375,-2.84375 L 3.734375,-6.046875 C 3.8125,-6.40625 3.84375,-6.5 4.5625,-6.5 C 4.8125,-6.5 4.90625,-6.5 4.90625,-6.703125 C 4.90625,-6.78125 4.828125,-6.8125 4.765625,-6.8125 C 4.484375,-6.8125 3.765625,-6.78125 3.484375,-6.78125 C 3.203125,-6.78125 2.5,-6.8125 2.203125,-6.8125 C 2.140625,-6.8125 2,-6.8125 2,-6.625 C 2,-6.5 2.09375,-6.5 2.296875,-6.5 C 2.421875,-6.5 2.609375,-6.484375 2.71875,-6.484375 C 2.875,-6.453125 2.9375,-6.4375 2.9375,-6.3125 C 2.9375,-6.28125 2.9375,-6.25 2.90625,-6.125 L 1.5625,-0.78125 C 1.46875,-0.390625 1.453125,-0.3125 0.65625,-0.3125 C 0.484375,-0.3125 0.375,-0.3125 0.375,-0.125 C 0.375,0 0.5,0 0.53125,0 C 0.8125,0 1.515625,-0.03125 1.796875,-0.03125 C 2,-0.03125 2.21875,-0.015625 2.4375,-0.015625 C 2.65625,-0.015625 2.875,0 3.078125,0 C 3.15625,0 3.28125,0 3.28125,-0.203125 C 3.28125,-0.3125 3.1875,-0.3125 3,-0.3125 C 2.625,-0.3125 2.359375,-0.3125 2.359375,-0.484375 C 2.359375,-0.5625 2.40625,-0.78125 2.4375,-0.921875 C 2.578125,-1.453125 2.71875,-1.96875 2.84375,-2.5 L 4.328125,-3.65625 C 4.578125,-3.046875 5.234375,-1.5625 5.484375,-0.96875 C 5.609375,-0.703125 5.609375,-0.671875 5.609375,-0.625 C 5.609375,-0.3125 5.171875,-0.3125 5.078125,-0.3125 C 4.96875,-0.3125 4.859375,-0.3125 4.859375,-0.109375 C 4.859375,0 4.984375,0 5,0 C 5.40625,0 5.828125,-0.03125 6.21875,-0.03125 C 6.4375,-0.03125 6.984375,0 7.203125,0 C 7.25,0 7.375,0 7.375,-0.203125 C 7.375,-0.3125 7.265625,-0.3125 7.171875,-0.3125 C 6.765625,-0.3125 6.640625,-0.40625 6.484375,-0.75 L 5.078125,-4.03125 z"
               id="path10059"
               style="stroke:none" />
          </symbol>
        </g>
      </defs>
      <g
         id="textext-bcbb8cab-2">
        <g
           id="g10062"
           style="fill:#000000;fill-opacity:1">
          <use
             id="use10064"
             x="223.43201"
             y="134.765"
             width="1052.3622"
             height="744.09448"
             xlink:href="#textext-bcbb8cab-1" />
        </g>
      </g>
    </g>
    <g
       transform="matrix(4,0,0,4,59.6875,-239.78052)"
       id="g10174">
      <defs
         id="defs10176">
        <g
           id="g10178">
          <symbol
             id="symbol10180"
             style="overflow:visible">
            <path
               d=""
               id="path10182"
               style="stroke:none" />
          </symbol>
          <symbol
             id="symbol10184"
             style="overflow:visible">
            <path
               d="M 5.078125,-4.03125 C 5.0625,-4.0625 5.03125,-4.140625 5.03125,-4.171875 C 5.03125,-4.171875 5.203125,-4.3125 5.3125,-4.390625 L 7.0625,-5.734375 C 8,-6.4375 8.390625,-6.46875 8.6875,-6.5 C 8.765625,-6.515625 8.859375,-6.515625 8.859375,-6.703125 C 8.859375,-6.734375 8.828125,-6.8125 8.75,-6.8125 C 8.53125,-6.8125 8.28125,-6.78125 8.046875,-6.78125 C 7.6875,-6.78125 7.296875,-6.8125 6.9375,-6.8125 C 6.875,-6.8125 6.75,-6.8125 6.75,-6.609375 C 6.75,-6.546875 6.796875,-6.515625 6.875,-6.5 C 7.09375,-6.484375 7.171875,-6.4375 7.171875,-6.296875 C 7.171875,-6.109375 6.875,-5.875 6.8125,-5.828125 L 2.9375,-2.84375 L 3.734375,-6.046875 C 3.8125,-6.40625 3.84375,-6.5 4.5625,-6.5 C 4.8125,-6.5 4.90625,-6.5 4.90625,-6.703125 C 4.90625,-6.78125 4.828125,-6.8125 4.765625,-6.8125 C 4.484375,-6.8125 3.765625,-6.78125 3.484375,-6.78125 C 3.203125,-6.78125 2.5,-6.8125 2.203125,-6.8125 C 2.140625,-6.8125 2,-6.8125 2,-6.625 C 2,-6.5 2.09375,-6.5 2.296875,-6.5 C 2.421875,-6.5 2.609375,-6.484375 2.71875,-6.484375 C 2.875,-6.453125 2.9375,-6.4375 2.9375,-6.3125 C 2.9375,-6.28125 2.9375,-6.25 2.90625,-6.125 L 1.5625,-0.78125 C 1.46875,-0.390625 1.453125,-0.3125 0.65625,-0.3125 C 0.484375,-0.3125 0.375,-0.3125 0.375,-0.125 C 0.375,0 0.5,0 0.53125,0 C 0.8125,0 1.515625,-0.03125 1.796875,-0.03125 C 2,-0.03125 2.21875,-0.015625 2.4375,-0.015625 C 2.65625,-0.015625 2.875,0 3.078125,0 C 3.15625,0 3.28125,0 3.28125,-0.203125 C 3.28125,-0.3125 3.1875,-0.3125 3,-0.3125 C 2.625,-0.3125 2.359375,-0.3125 2.359375,-0.484375 C 2.359375,-0.5625 2.40625,-0.78125 2.4375,-0.921875 C 2.578125,-1.453125 2.71875,-1.96875 2.84375,-2.5 L 4.328125,-3.65625 C 4.578125,-3.046875 5.234375,-1.5625 5.484375,-0.96875 C 5.609375,-0.703125 5.609375,-0.671875 5.609375,-0.625 C 5.609375,-0.3125 5.171875,-0.3125 5.078125,-0.3125 C 4.96875,-0.3125 4.859375,-0.3125 4.859375,-0.109375 C 4.859375,0 4.984375,0 5,0 C 5.40625,0 5.828125,-0.03125 6.21875,-0.03125 C 6.4375,-0.03125 6.984375,0 7.203125,0 C 7.25,0 7.375,0 7.375,-0.203125 C 7.375,-0.3125 7.265625,-0.3125 7.171875,-0.3125 C 6.765625,-0.3125 6.640625,-0.40625 6.484375,-0.75 L 5.078125,-4.03125 z"
               id="path10186"
               style="stroke:none" />
          </symbol>
        </g>
      </defs>
      <g
         id="g10188">
        <g
           id="g10190"
           style="fill:#000000;fill-opacity:1">
          <use
             id="use10192"
             x="223.43201"
             y="134.765"
             width="1052.3622"
             height="744.09448"
             xlink:href="#textext-bcbb8cab-1" />
        </g>
      </g>
    </g>
    <g
       transform="matrix(4,0,0,4,-846.625,-181.28052)"
       id="g10334">
      <defs
         id="defs10336">
        <g
           id="g10338">
          <symbol
             id="textext-e2324b4a-0"
             style="overflow:visible">
            <path
               d=""
               id="path10341"
               style="stroke:none" />
          </symbol>
          <symbol
             id="textext-e2324b4a-1"
             style="overflow:visible">
            <path
               d="M 3.734375,-6.046875 C 3.8125,-6.40625 3.84375,-6.5 4.640625,-6.5 C 4.875,-6.5 4.953125,-6.5 4.953125,-6.6875 C 4.953125,-6.8125 4.84375,-6.8125 4.8125,-6.8125 C 4.515625,-6.8125 3.78125,-6.78125 3.484375,-6.78125 C 3.1875,-6.78125 2.46875,-6.8125 2.15625,-6.8125 C 2.09375,-6.8125 1.96875,-6.8125 1.96875,-6.609375 C 1.96875,-6.5 2.046875,-6.5 2.25,-6.5 C 2.65625,-6.5 2.9375,-6.5 2.9375,-6.3125 C 2.9375,-6.265625 2.9375,-6.234375 2.90625,-6.15625 L 1.5625,-0.78125 C 1.46875,-0.40625 1.453125,-0.3125 0.65625,-0.3125 C 0.421875,-0.3125 0.34375,-0.3125 0.34375,-0.109375 C 0.34375,0 0.453125,0 0.484375,0 C 0.78125,0 1.5,-0.03125 1.796875,-0.03125 C 2.09375,-0.03125 2.828125,0 3.125,0 C 3.203125,0 3.328125,0 3.328125,-0.1875 C 3.328125,-0.3125 3.25,-0.3125 3.03125,-0.3125 C 2.84375,-0.3125 2.796875,-0.3125 2.609375,-0.328125 C 2.390625,-0.34375 2.359375,-0.390625 2.359375,-0.5 C 2.359375,-0.578125 2.375,-0.65625 2.390625,-0.734375 L 3.734375,-6.046875 z"
               id="path10344"
               style="stroke:none" />
          </symbol>
          <symbol
             id="textext-e2324b4a-2"
             style="overflow:visible">
            <path
               d="M 6.265625,-5.671875 C 6.75,-6.453125 7.171875,-6.484375 7.53125,-6.5 C 7.65625,-6.515625 7.671875,-6.671875 7.671875,-6.6875 C 7.671875,-6.765625 7.609375,-6.8125 7.53125,-6.8125 C 7.28125,-6.8125 6.984375,-6.78125 6.71875,-6.78125 C 6.390625,-6.78125 6.046875,-6.8125 5.734375,-6.8125 C 5.671875,-6.8125 5.546875,-6.8125 5.546875,-6.625 C 5.546875,-6.515625 5.625,-6.5 5.703125,-6.5 C 5.96875,-6.484375 6.15625,-6.375 6.15625,-6.171875 C 6.15625,-6.015625 6.015625,-5.796875 6.015625,-5.796875 L 2.953125,-0.921875 L 2.265625,-6.203125 C 2.265625,-6.375 2.5,-6.5 2.953125,-6.5 C 3.09375,-6.5 3.203125,-6.5 3.203125,-6.703125 C 3.203125,-6.78125 3.125,-6.8125 3.078125,-6.8125 C 2.671875,-6.8125 2.25,-6.78125 1.828125,-6.78125 C 1.65625,-6.78125 1.46875,-6.78125 1.28125,-6.78125 C 1.109375,-6.78125 0.921875,-6.8125 0.75,-6.8125 C 0.671875,-6.8125 0.5625,-6.8125 0.5625,-6.625 C 0.5625,-6.5 0.640625,-6.5 0.8125,-6.5 C 1.359375,-6.5 1.375,-6.40625 1.40625,-6.15625 L 2.1875,-0.015625 C 2.21875,0.1875 2.265625,0.21875 2.390625,0.21875 C 2.546875,0.21875 2.59375,0.171875 2.671875,0.046875 L 6.265625,-5.671875 z"
               id="path10347"
               style="stroke:none" />
          </symbol>
        </g>
      </defs>
      <g
         id="textext-e2324b4a-3">
        <g
           id="g10350"
           style="fill:#000000;fill-opacity:1">
          <use
             id="use10352"
             x="223.43201"
             y="134.765"
             width="1052.3622"
             height="744.09448"
             xlink:href="#textext-e2324b4a-1" />
        </g>
        <g
           id="g10354"
           style="fill:#000000;fill-opacity:1">
          <use
             id="use10356"
             x="228.58864"
             y="134.765"
             width="1052.3622"
             height="744.09448"
             xlink:href="#textext-e2324b4a-2" />
        </g>
      </g>
    </g>
    <g
       transform="matrix(4,0,0,4,54.3125,-181.09302)"
       id="g10490">
      <defs
         id="defs10492">
        <g
           id="g10494">
          <symbol
             id="symbol10496"
             style="overflow:visible">
            <path
               d=""
               id="path10498"
               style="stroke:none" />
          </symbol>
          <symbol
             id="symbol10500"
             style="overflow:visible">
            <path
               d="M 3.734375,-6.046875 C 3.8125,-6.40625 3.84375,-6.5 4.640625,-6.5 C 4.875,-6.5 4.953125,-6.5 4.953125,-6.6875 C 4.953125,-6.8125 4.84375,-6.8125 4.8125,-6.8125 C 4.515625,-6.8125 3.78125,-6.78125 3.484375,-6.78125 C 3.1875,-6.78125 2.46875,-6.8125 2.15625,-6.8125 C 2.09375,-6.8125 1.96875,-6.8125 1.96875,-6.609375 C 1.96875,-6.5 2.046875,-6.5 2.25,-6.5 C 2.65625,-6.5 2.9375,-6.5 2.9375,-6.3125 C 2.9375,-6.265625 2.9375,-6.234375 2.90625,-6.15625 L 1.5625,-0.78125 C 1.46875,-0.40625 1.453125,-0.3125 0.65625,-0.3125 C 0.421875,-0.3125 0.34375,-0.3125 0.34375,-0.109375 C 0.34375,0 0.453125,0 0.484375,0 C 0.78125,0 1.5,-0.03125 1.796875,-0.03125 C 2.09375,-0.03125 2.828125,0 3.125,0 C 3.203125,0 3.328125,0 3.328125,-0.1875 C 3.328125,-0.3125 3.25,-0.3125 3.03125,-0.3125 C 2.84375,-0.3125 2.796875,-0.3125 2.609375,-0.328125 C 2.390625,-0.34375 2.359375,-0.390625 2.359375,-0.5 C 2.359375,-0.578125 2.375,-0.65625 2.390625,-0.734375 L 3.734375,-6.046875 z"
               id="path10502"
               style="stroke:none" />
          </symbol>
          <symbol
             id="symbol10504"
             style="overflow:visible">
            <path
               d="M 6.265625,-5.671875 C 6.75,-6.453125 7.171875,-6.484375 7.53125,-6.5 C 7.65625,-6.515625 7.671875,-6.671875 7.671875,-6.6875 C 7.671875,-6.765625 7.609375,-6.8125 7.53125,-6.8125 C 7.28125,-6.8125 6.984375,-6.78125 6.71875,-6.78125 C 6.390625,-6.78125 6.046875,-6.8125 5.734375,-6.8125 C 5.671875,-6.8125 5.546875,-6.8125 5.546875,-6.625 C 5.546875,-6.515625 5.625,-6.5 5.703125,-6.5 C 5.96875,-6.484375 6.15625,-6.375 6.15625,-6.171875 C 6.15625,-6.015625 6.015625,-5.796875 6.015625,-5.796875 L 2.953125,-0.921875 L 2.265625,-6.203125 C 2.265625,-6.375 2.5,-6.5 2.953125,-6.5 C 3.09375,-6.5 3.203125,-6.5 3.203125,-6.703125 C 3.203125,-6.78125 3.125,-6.8125 3.078125,-6.8125 C 2.671875,-6.8125 2.25,-6.78125 1.828125,-6.78125 C 1.65625,-6.78125 1.46875,-6.78125 1.28125,-6.78125 C 1.109375,-6.78125 0.921875,-6.8125 0.75,-6.8125 C 0.671875,-6.8125 0.5625,-6.8125 0.5625,-6.625 C 0.5625,-6.5 0.640625,-6.5 0.8125,-6.5 C 1.359375,-6.5 1.375,-6.40625 1.40625,-6.15625 L 2.1875,-0.015625 C 2.21875,0.1875 2.265625,0.21875 2.390625,0.21875 C 2.546875,0.21875 2.59375,0.171875 2.671875,0.046875 L 6.265625,-5.671875 z"
               id="path10506"
               style="stroke:none" />
          </symbol>
        </g>
      </defs>
      <g
         id="g10508">
        <g
           id="g10510"
           style="fill:#000000;fill-opacity:1">
          <use
             id="use10512"
             x="223.43201"
             y="134.765"
             width="1052.3622"
             height="744.09448"
             xlink:href="#textext-e2324b4a-1" />
        </g>
        <g
           id="g10514"
           style="fill:#000000;fill-opacity:1">
          <use
             id="use10516"
             x="228.58864"
             y="134.765"
             width="1052.3622"
             height="744.09448"
             xlink:href="#textext-e2324b4a-2" />
        </g>
      </g>
    </g>
    <g
       transform="matrix(4,0,0,4,-726,-448.78052)"
       id="g13334">
      <defs
         id="defs13336">
        <g
           id="g13338">
          <symbol
             id="textext-c88dc47b-0"
             style="overflow:visible">
            <path
               d=""
               id="path13341"
               style="stroke:none" />
          </symbol>
          <symbol
             id="textext-c88dc47b-1"
             style="overflow:visible">
            <path
               d="M 6.5,-2.578125 L 6.25,-2.578125 C 6,-1.03125 5.765625,-0.3125 4.0625,-0.3125 L 2.734375,-0.3125 C 2.265625,-0.3125 2.25,-0.375 2.25,-0.703125 L 2.25,-3.375 L 3.140625,-3.375 C 4.109375,-3.375 4.21875,-3.046875 4.21875,-2.203125 L 4.46875,-2.203125 L 4.46875,-4.84375 L 4.21875,-4.84375 C 4.21875,-3.984375 4.109375,-3.671875 3.140625,-3.671875 L 2.25,-3.671875 L 2.25,-6.078125 C 2.25,-6.40625 2.265625,-6.46875 2.734375,-6.46875 L 4.015625,-6.46875 C 5.546875,-6.46875 5.8125,-5.921875 5.96875,-4.53125 L 6.21875,-4.53125 L 5.9375,-6.78125 L 0.328125,-6.78125 L 0.328125,-6.46875 L 0.5625,-6.46875 C 1.328125,-6.46875 1.359375,-6.359375 1.359375,-6 L 1.359375,-0.78125 C 1.359375,-0.421875 1.328125,-0.3125 0.5625,-0.3125 L 0.328125,-0.3125 L 0.328125,0 L 6.078125,0 L 6.5,-2.578125 z"
               id="path13344"
               style="stroke:none" />
          </symbol>
          <symbol
             id="textext-c88dc47b-2"
             style="overflow:visible">
            <path
               d="M 1.09375,-3.421875 L 1.09375,-0.75 C 1.09375,-0.3125 0.984375,-0.3125 0.3125,-0.3125 L 0.3125,0 C 0.671875,-0.015625 1.171875,-0.03125 1.453125,-0.03125 C 1.703125,-0.03125 2.21875,-0.015625 2.5625,0 L 2.5625,-0.3125 C 1.890625,-0.3125 1.78125,-0.3125 1.78125,-0.75 L 1.78125,-2.59375 C 1.78125,-3.625 2.5,-4.1875 3.125,-4.1875 C 3.765625,-4.1875 3.875,-3.65625 3.875,-3.078125 L 3.875,-0.75 C 3.875,-0.3125 3.765625,-0.3125 3.09375,-0.3125 L 3.09375,0 C 3.4375,-0.015625 3.953125,-0.03125 4.21875,-0.03125 C 4.46875,-0.03125 5,-0.015625 5.328125,0 L 5.328125,-0.3125 C 4.8125,-0.3125 4.5625,-0.3125 4.5625,-0.609375 L 4.5625,-2.515625 C 4.5625,-3.375 4.5625,-3.671875 4.25,-4.03125 C 4.109375,-4.203125 3.78125,-4.40625 3.203125,-4.40625 C 2.46875,-4.40625 2,-3.984375 1.71875,-3.359375 L 1.71875,-4.40625 L 0.3125,-4.296875 L 0.3125,-3.984375 C 1.015625,-3.984375 1.09375,-3.921875 1.09375,-3.421875 z"
               id="path13347"
               style="stroke:none" />
          </symbol>
          <symbol
             id="textext-c88dc47b-3"
             style="overflow:visible">
            <path
               d="M 3.578125,-3.84375 C 3.171875,-3.8125 3.109375,-3.515625 3.109375,-3.390625 C 3.109375,-3.125 3.296875,-2.9375 3.5625,-2.9375 C 3.828125,-2.9375 4.03125,-3.09375 4.03125,-3.40625 C 4.03125,-4.078125 3.265625,-4.46875 2.5,-4.46875 C 1.25,-4.46875 0.34375,-3.390625 0.34375,-2.15625 C 0.34375,-0.875 1.328125,0.109375 2.484375,0.109375 C 3.8125,0.109375 4.140625,-1.09375 4.140625,-1.1875 C 4.140625,-1.28125 4.03125,-1.28125 4,-1.28125 C 3.921875,-1.28125 3.890625,-1.25 3.875,-1.1875 C 3.59375,-0.265625 2.9375,-0.140625 2.578125,-0.140625 C 2.046875,-0.140625 1.171875,-0.5625 1.171875,-2.171875 C 1.171875,-3.796875 1.984375,-4.21875 2.515625,-4.21875 C 2.609375,-4.21875 3.234375,-4.203125 3.578125,-3.84375 z"
               id="path13350"
               style="stroke:none" />
          </symbol>
          <symbol
             id="textext-c88dc47b-4"
             style="overflow:visible">
            <path
               d="M 1.71875,-0.78125 L 1.71875,-2.3125 C 1.71875,-3.296875 2.140625,-4.1875 2.890625,-4.1875 C 2.953125,-4.1875 2.984375,-4.1875 3,-4.171875 C 2.96875,-4.171875 2.765625,-4.046875 2.765625,-3.78125 C 2.765625,-3.515625 2.984375,-3.359375 3.203125,-3.359375 C 3.375,-3.359375 3.625,-3.484375 3.625,-3.796875 C 3.625,-4.109375 3.3125,-4.40625 2.890625,-4.40625 C 2.15625,-4.40625 1.796875,-3.734375 1.671875,-3.3125 L 1.671875,-4.40625 L 0.28125,-4.296875 L 0.28125,-3.984375 C 0.984375,-3.984375 1.0625,-3.921875 1.0625,-3.421875 L 1.0625,-0.75 C 1.0625,-0.3125 0.953125,-0.3125 0.28125,-0.3125 L 0.28125,0 C 0.671875,-0.015625 1.140625,-0.03125 1.421875,-0.03125 C 1.8125,-0.03125 2.28125,-0.03125 2.6875,0 L 2.6875,-0.3125 L 2.46875,-0.3125 C 1.734375,-0.3125 1.71875,-0.421875 1.71875,-0.78125 z"
               id="path13353"
               style="stroke:none" />
          </symbol>
          <symbol
             id="textext-c88dc47b-5"
             style="overflow:visible">
            <path
               d="M 4.140625,-3.34375 C 4.390625,-3.984375 4.90625,-3.984375 5.0625,-3.984375 L 5.0625,-4.296875 C 4.828125,-4.28125 4.546875,-4.265625 4.3125,-4.265625 C 4.140625,-4.265625 3.671875,-4.28125 3.453125,-4.296875 L 3.453125,-3.984375 C 3.765625,-3.984375 3.921875,-3.8125 3.921875,-3.5625 C 3.921875,-3.453125 3.90625,-3.4375 3.859375,-3.3125 L 2.84375,-0.875 L 1.75,-3.546875 C 1.703125,-3.65625 1.6875,-3.6875 1.6875,-3.734375 C 1.6875,-3.984375 2.046875,-3.984375 2.25,-3.984375 L 2.25,-4.296875 C 1.984375,-4.28125 1.328125,-4.265625 1.15625,-4.265625 C 0.890625,-4.265625 0.484375,-4.28125 0.1875,-4.296875 L 0.1875,-3.984375 C 0.671875,-3.984375 0.859375,-3.984375 1,-3.640625 L 2.5,0 C 2.4375,0.125 2.296875,0.453125 2.25,0.59375 C 2.03125,1.140625 1.75,1.828125 1.109375,1.828125 C 1.0625,1.828125 0.828125,1.828125 0.640625,1.640625 C 0.953125,1.609375 1.03125,1.390625 1.03125,1.21875 C 1.03125,0.96875 0.84375,0.8125 0.609375,0.8125 C 0.40625,0.8125 0.1875,0.9375 0.1875,1.234375 C 0.1875,1.6875 0.609375,2.046875 1.109375,2.046875 C 1.734375,2.046875 2.140625,1.46875 2.375,0.90625 L 4.140625,-3.34375 z"
               id="path13356"
               style="stroke:none" />
          </symbol>
          <symbol
             id="textext-c88dc47b-6"
             style="overflow:visible">
            <path
               d="M 1.75,-3.359375 C 2.03125,-3.875 2.515625,-4.15625 3.03125,-4.15625 C 3.765625,-4.15625 4.359375,-3.28125 4.359375,-2.15625 C 4.359375,-0.953125 3.671875,-0.109375 2.9375,-0.109375 C 2.53125,-0.109375 2.15625,-0.3125 1.890625,-0.71875 C 1.75,-0.921875 1.75,-0.9375 1.75,-1.140625 L 1.75,-3.359375 z M 1.75,-0.59375 C 1.796875,-0.421875 2.21875,0.109375 2.96875,0.109375 C 4.15625,0.109375 5.1875,-0.875 5.1875,-2.15625 C 5.1875,-3.421875 4.234375,-4.40625 3.109375,-4.40625 C 2.328125,-4.40625 1.90625,-3.96875 1.71875,-3.75 L 1.71875,-4.40625 L 0.28125,-4.296875 L 0.28125,-3.984375 C 0.984375,-3.984375 1.0625,-3.921875 1.0625,-3.484375 L 1.0625,1.171875 C 1.0625,1.625 0.953125,1.625 0.28125,1.625 L 0.28125,1.9375 C 0.625,1.921875 1.140625,1.90625 1.390625,1.90625 C 1.671875,1.90625 2.171875,1.921875 2.515625,1.9375 L 2.515625,1.625 C 1.859375,1.625 1.75,1.625 1.75,1.171875 L 1.75,-0.5 L 1.75,-0.59375 z"
               id="path13359"
               style="stroke:none" />
          </symbol>
          <symbol
             id="textext-c88dc47b-7"
             style="overflow:visible">
            <path
               d="M 1.71875,-3.984375 L 3.15625,-3.984375 L 3.15625,-4.296875 L 1.71875,-4.296875 L 1.71875,-6.125 L 1.46875,-6.125 C 1.46875,-5.3125 1.171875,-4.25 0.1875,-4.203125 L 0.1875,-3.984375 L 1.03125,-3.984375 L 1.03125,-1.234375 C 1.03125,-0.015625 1.96875,0.109375 2.328125,0.109375 C 3.03125,0.109375 3.3125,-0.59375 3.3125,-1.234375 L 3.3125,-1.796875 L 3.0625,-1.796875 L 3.0625,-1.25 C 3.0625,-0.515625 2.765625,-0.140625 2.390625,-0.140625 C 1.71875,-0.140625 1.71875,-1.046875 1.71875,-1.21875 L 1.71875,-3.984375 z"
               id="path13362"
               style="stroke:none" />
          </symbol>
          <symbol
             id="textext-c88dc47b-8"
             style="overflow:visible">
            <path
               d="M 1.765625,-4.40625 L 0.375,-4.296875 L 0.375,-3.984375 C 1.015625,-3.984375 1.109375,-3.921875 1.109375,-3.4375 L 1.109375,-0.75 C 1.109375,-0.3125 1,-0.3125 0.328125,-0.3125 L 0.328125,0 C 0.640625,-0.015625 1.1875,-0.03125 1.421875,-0.03125 C 1.78125,-0.03125 2.125,-0.015625 2.46875,0 L 2.46875,-0.3125 C 1.796875,-0.3125 1.765625,-0.359375 1.765625,-0.75 L 1.765625,-4.40625 z M 1.796875,-6.140625 C 1.796875,-6.453125 1.5625,-6.671875 1.28125,-6.671875 C 0.96875,-6.671875 0.75,-6.40625 0.75,-6.140625 C 0.75,-5.875 0.96875,-5.609375 1.28125,-5.609375 C 1.5625,-5.609375 1.796875,-5.828125 1.796875,-6.140625 z"
               id="path13365"
               style="stroke:none" />
          </symbol>
          <symbol
             id="textext-c88dc47b-9"
             style="overflow:visible">
            <path
               d="M 4.6875,-2.140625 C 4.6875,-3.40625 3.703125,-4.46875 2.5,-4.46875 C 1.25,-4.46875 0.28125,-3.375 0.28125,-2.140625 C 0.28125,-0.84375 1.3125,0.109375 2.484375,0.109375 C 3.6875,0.109375 4.6875,-0.875 4.6875,-2.140625 z M 2.5,-0.140625 C 2.0625,-0.140625 1.625,-0.34375 1.359375,-0.8125 C 1.109375,-1.25 1.109375,-1.859375 1.109375,-2.21875 C 1.109375,-2.609375 1.109375,-3.140625 1.34375,-3.578125 C 1.609375,-4.03125 2.078125,-4.25 2.484375,-4.25 C 2.921875,-4.25 3.34375,-4.03125 3.609375,-3.59375 C 3.875,-3.171875 3.875,-2.59375 3.875,-2.21875 C 3.875,-1.859375 3.875,-1.3125 3.65625,-0.875 C 3.421875,-0.421875 2.984375,-0.140625 2.5,-0.140625 z"
               id="path13368"
               style="stroke:none" />
          </symbol>
        </g>
      </defs>
      <g
         id="textext-c88dc47b-10">
        <g
           id="g13371"
           style="fill:#000000;fill-opacity:1">
          <use
             id="use13373"
             x="223.43201"
             y="134.765"
             width="1052.3622"
             height="744.09448"
             xlink:href="#textext-c88dc47b-1" />
          <use
             id="use13375"
             x="230.21254"
             y="134.765"
             width="1052.3622"
             height="744.09448"
             xlink:href="#textext-c88dc47b-2" />
          <use
             id="use13377"
             x="235.74777"
             y="134.765"
             width="1052.3622"
             height="744.09448"
             xlink:href="#textext-c88dc47b-3" />
          <use
             id="use13379"
             x="240.17514"
             y="134.765"
             width="1052.3622"
             height="744.09448"
             xlink:href="#textext-c88dc47b-4" />
          <use
             id="use13381"
             x="244.0775"
             y="134.765"
             width="1052.3622"
             height="744.09448"
             xlink:href="#textext-c88dc47b-5" />
          <use
             id="use13383"
             x="249.33575"
             y="134.765"
             width="1052.3622"
             height="744.09448"
             xlink:href="#textext-c88dc47b-6" />
          <use
             id="use13385"
             x="254.87097"
             y="134.765"
             width="1052.3622"
             height="744.09448"
             xlink:href="#textext-c88dc47b-7" />
          <use
             id="use13387"
             x="258.74542"
             y="134.765"
             width="1052.3622"
             height="744.09448"
             xlink:href="#textext-c88dc47b-8" />
          <use
             id="use13389"
             x="261.51303"
             y="134.765"
             width="1052.3622"
             height="744.09448"
             xlink:href="#textext-c88dc47b-9" />
          <use
             id="use13391"
             x="266.49435"
             y="134.765"
             width="1052.3622"
             height="744.09448"
             xlink:href="#textext-c88dc47b-2" />
        </g>
      </g>
    </g>
    <g
       transform="matrix(4,0,0,4,-221.3125,-448.65552)"
       id="g13927">
      <defs
         id="defs13929">
        <g
           id="g13931">
          <symbol
             id="textext-04c36ee7-0"
             style="overflow:visible">
            <path
               d=""
               id="path13934"
               style="stroke:none" />
          </symbol>
          <symbol
             id="textext-04c36ee7-1"
             style="overflow:visible">
            <path
               d="M 0.34375,-6.8125 L 0.34375,-6.5 L 0.59375,-6.5 C 1.359375,-6.5 1.375,-6.390625 1.375,-6.03125 L 1.375,-0.78125 C 1.375,-0.421875 1.359375,-0.3125 0.59375,-0.3125 L 0.34375,-0.3125 L 0.34375,0 L 4,0 C 5.671875,0 7.046875,-1.46875 7.046875,-3.34375 C 7.046875,-5.25 5.703125,-6.8125 4,-6.8125 L 0.34375,-6.8125 z M 2.71875,-0.3125 C 2.25,-0.3125 2.234375,-0.375 2.234375,-0.703125 L 2.234375,-6.09375 C 2.234375,-6.4375 2.25,-6.5 2.71875,-6.5 L 3.71875,-6.5 C 4.34375,-6.5 5.03125,-6.28125 5.53125,-5.578125 C 5.96875,-4.984375 6.046875,-4.125 6.046875,-3.34375 C 6.046875,-2.25 5.859375,-1.640625 5.5,-1.15625 C 5.296875,-0.890625 4.734375,-0.3125 3.734375,-0.3125 L 2.71875,-0.3125 z"
               id="path13937"
               style="stroke:none" />
          </symbol>
          <symbol
             id="textext-04c36ee7-2"
             style="overflow:visible">
            <path
               d="M 3.890625,-2.296875 C 4.109375,-2.296875 4.140625,-2.296875 4.140625,-2.515625 C 4.140625,-3.5 3.59375,-4.46875 2.359375,-4.46875 C 1.203125,-4.46875 0.28125,-3.4375 0.28125,-2.1875 C 0.28125,-0.859375 1.328125,0.109375 2.46875,0.109375 C 3.6875,0.109375 4.140625,-1 4.140625,-1.1875 C 4.140625,-1.28125 4.0625,-1.3125 4,-1.3125 C 3.921875,-1.3125 3.890625,-1.25 3.875,-1.171875 C 3.53125,-0.140625 2.625,-0.140625 2.53125,-0.140625 C 2.03125,-0.140625 1.640625,-0.4375 1.40625,-0.8125 C 1.109375,-1.28125 1.109375,-1.9375 1.109375,-2.296875 L 3.890625,-2.296875 z M 1.109375,-2.515625 C 1.171875,-4 2.015625,-4.25 2.359375,-4.25 C 3.375,-4.25 3.484375,-2.90625 3.484375,-2.515625 L 1.109375,-2.515625 z"
               id="path13940"
               style="stroke:none" />
          </symbol>
          <symbol
             id="textext-04c36ee7-3"
             style="overflow:visible">
            <path
               d="M 3.578125,-3.84375 C 3.171875,-3.8125 3.109375,-3.515625 3.109375,-3.390625 C 3.109375,-3.125 3.296875,-2.9375 3.5625,-2.9375 C 3.828125,-2.9375 4.03125,-3.09375 4.03125,-3.40625 C 4.03125,-4.078125 3.265625,-4.46875 2.5,-4.46875 C 1.25,-4.46875 0.34375,-3.390625 0.34375,-2.15625 C 0.34375,-0.875 1.328125,0.109375 2.484375,0.109375 C 3.8125,0.109375 4.140625,-1.09375 4.140625,-1.1875 C 4.140625,-1.28125 4.03125,-1.28125 4,-1.28125 C 3.921875,-1.28125 3.890625,-1.25 3.875,-1.1875 C 3.59375,-0.265625 2.9375,-0.140625 2.578125,-0.140625 C 2.046875,-0.140625 1.171875,-0.5625 1.171875,-2.171875 C 1.171875,-3.796875 1.984375,-4.21875 2.515625,-4.21875 C 2.609375,-4.21875 3.234375,-4.203125 3.578125,-3.84375 z"
               id="path13943"
               style="stroke:none" />
          </symbol>
          <symbol
             id="textext-04c36ee7-4"
             style="overflow:visible">
            <path
               d="M 1.71875,-0.78125 L 1.71875,-2.3125 C 1.71875,-3.296875 2.140625,-4.1875 2.890625,-4.1875 C 2.953125,-4.1875 2.984375,-4.1875 3,-4.171875 C 2.96875,-4.171875 2.765625,-4.046875 2.765625,-3.78125 C 2.765625,-3.515625 2.984375,-3.359375 3.203125,-3.359375 C 3.375,-3.359375 3.625,-3.484375 3.625,-3.796875 C 3.625,-4.109375 3.3125,-4.40625 2.890625,-4.40625 C 2.15625,-4.40625 1.796875,-3.734375 1.671875,-3.3125 L 1.671875,-4.40625 L 0.28125,-4.296875 L 0.28125,-3.984375 C 0.984375,-3.984375 1.0625,-3.921875 1.0625,-3.421875 L 1.0625,-0.75 C 1.0625,-0.3125 0.953125,-0.3125 0.28125,-0.3125 L 0.28125,0 C 0.671875,-0.015625 1.140625,-0.03125 1.421875,-0.03125 C 1.8125,-0.03125 2.28125,-0.03125 2.6875,0 L 2.6875,-0.3125 L 2.46875,-0.3125 C 1.734375,-0.3125 1.71875,-0.421875 1.71875,-0.78125 z"
               id="path13946"
               style="stroke:none" />
          </symbol>
          <symbol
             id="textext-04c36ee7-5"
             style="overflow:visible">
            <path
               d="M 4.140625,-3.34375 C 4.390625,-3.984375 4.90625,-3.984375 5.0625,-3.984375 L 5.0625,-4.296875 C 4.828125,-4.28125 4.546875,-4.265625 4.3125,-4.265625 C 4.140625,-4.265625 3.671875,-4.28125 3.453125,-4.296875 L 3.453125,-3.984375 C 3.765625,-3.984375 3.921875,-3.8125 3.921875,-3.5625 C 3.921875,-3.453125 3.90625,-3.4375 3.859375,-3.3125 L 2.84375,-0.875 L 1.75,-3.546875 C 1.703125,-3.65625 1.6875,-3.6875 1.6875,-3.734375 C 1.6875,-3.984375 2.046875,-3.984375 2.25,-3.984375 L 2.25,-4.296875 C 1.984375,-4.28125 1.328125,-4.265625 1.15625,-4.265625 C 0.890625,-4.265625 0.484375,-4.28125 0.1875,-4.296875 L 0.1875,-3.984375 C 0.671875,-3.984375 0.859375,-3.984375 1,-3.640625 L 2.5,0 C 2.4375,0.125 2.296875,0.453125 2.25,0.59375 C 2.03125,1.140625 1.75,1.828125 1.109375,1.828125 C 1.0625,1.828125 0.828125,1.828125 0.640625,1.640625 C 0.953125,1.609375 1.03125,1.390625 1.03125,1.21875 C 1.03125,0.96875 0.84375,0.8125 0.609375,0.8125 C 0.40625,0.8125 0.1875,0.9375 0.1875,1.234375 C 0.1875,1.6875 0.609375,2.046875 1.109375,2.046875 C 1.734375,2.046875 2.140625,1.46875 2.375,0.90625 L 4.140625,-3.34375 z"
               id="path13949"
               style="stroke:none" />
          </symbol>
          <symbol
             id="textext-04c36ee7-6"
             style="overflow:visible">
            <path
               d="M 1.75,-3.359375 C 2.03125,-3.875 2.515625,-4.15625 3.03125,-4.15625 C 3.765625,-4.15625 4.359375,-3.28125 4.359375,-2.15625 C 4.359375,-0.953125 3.671875,-0.109375 2.9375,-0.109375 C 2.53125,-0.109375 2.15625,-0.3125 1.890625,-0.71875 C 1.75,-0.921875 1.75,-0.9375 1.75,-1.140625 L 1.75,-3.359375 z M 1.75,-0.59375 C 1.796875,-0.421875 2.21875,0.109375 2.96875,0.109375 C 4.15625,0.109375 5.1875,-0.875 5.1875,-2.15625 C 5.1875,-3.421875 4.234375,-4.40625 3.109375,-4.40625 C 2.328125,-4.40625 1.90625,-3.96875 1.71875,-3.75 L 1.71875,-4.40625 L 0.28125,-4.296875 L 0.28125,-3.984375 C 0.984375,-3.984375 1.0625,-3.921875 1.0625,-3.484375 L 1.0625,1.171875 C 1.0625,1.625 0.953125,1.625 0.28125,1.625 L 0.28125,1.9375 C 0.625,1.921875 1.140625,1.90625 1.390625,1.90625 C 1.671875,1.90625 2.171875,1.921875 2.515625,1.9375 L 2.515625,1.625 C 1.859375,1.625 1.75,1.625 1.75,1.171875 L 1.75,-0.5 L 1.75,-0.59375 z"
               id="path13952"
               style="stroke:none" />
          </symbol>
          <symbol
             id="textext-04c36ee7-7"
             style="overflow:visible">
            <path
               d="M 1.71875,-3.984375 L 3.15625,-3.984375 L 3.15625,-4.296875 L 1.71875,-4.296875 L 1.71875,-6.125 L 1.46875,-6.125 C 1.46875,-5.3125 1.171875,-4.25 0.1875,-4.203125 L 0.1875,-3.984375 L 1.03125,-3.984375 L 1.03125,-1.234375 C 1.03125,-0.015625 1.96875,0.109375 2.328125,0.109375 C 3.03125,0.109375 3.3125,-0.59375 3.3125,-1.234375 L 3.3125,-1.796875 L 3.0625,-1.796875 L 3.0625,-1.25 C 3.0625,-0.515625 2.765625,-0.140625 2.390625,-0.140625 C 1.71875,-0.140625 1.71875,-1.046875 1.71875,-1.21875 L 1.71875,-3.984375 z"
               id="path13955"
               style="stroke:none" />
          </symbol>
          <symbol
             id="textext-04c36ee7-8"
             style="overflow:visible">
            <path
               d="M 1.765625,-4.40625 L 0.375,-4.296875 L 0.375,-3.984375 C 1.015625,-3.984375 1.109375,-3.921875 1.109375,-3.4375 L 1.109375,-0.75 C 1.109375,-0.3125 1,-0.3125 0.328125,-0.3125 L 0.328125,0 C 0.640625,-0.015625 1.1875,-0.03125 1.421875,-0.03125 C 1.78125,-0.03125 2.125,-0.015625 2.46875,0 L 2.46875,-0.3125 C 1.796875,-0.3125 1.765625,-0.359375 1.765625,-0.75 L 1.765625,-4.40625 z M 1.796875,-6.140625 C 1.796875,-6.453125 1.5625,-6.671875 1.28125,-6.671875 C 0.96875,-6.671875 0.75,-6.40625 0.75,-6.140625 C 0.75,-5.875 0.96875,-5.609375 1.28125,-5.609375 C 1.5625,-5.609375 1.796875,-5.828125 1.796875,-6.140625 z"
               id="path13958"
               style="stroke:none" />
          </symbol>
          <symbol
             id="textext-04c36ee7-9"
             style="overflow:visible">
            <path
               d="M 4.6875,-2.140625 C 4.6875,-3.40625 3.703125,-4.46875 2.5,-4.46875 C 1.25,-4.46875 0.28125,-3.375 0.28125,-2.140625 C 0.28125,-0.84375 1.3125,0.109375 2.484375,0.109375 C 3.6875,0.109375 4.6875,-0.875 4.6875,-2.140625 z M 2.5,-0.140625 C 2.0625,-0.140625 1.625,-0.34375 1.359375,-0.8125 C 1.109375,-1.25 1.109375,-1.859375 1.109375,-2.21875 C 1.109375,-2.609375 1.109375,-3.140625 1.34375,-3.578125 C 1.609375,-4.03125 2.078125,-4.25 2.484375,-4.25 C 2.921875,-4.25 3.34375,-4.03125 3.609375,-3.59375 C 3.875,-3.171875 3.875,-2.59375 3.875,-2.21875 C 3.875,-1.859375 3.875,-1.3125 3.65625,-0.875 C 3.421875,-0.421875 2.984375,-0.140625 2.5,-0.140625 z"
               id="path13961"
               style="stroke:none" />
          </symbol>
          <symbol
             id="textext-04c36ee7-10"
             style="overflow:visible">
            <path
               d="M 1.09375,-3.421875 L 1.09375,-0.75 C 1.09375,-0.3125 0.984375,-0.3125 0.3125,-0.3125 L 0.3125,0 C 0.671875,-0.015625 1.171875,-0.03125 1.453125,-0.03125 C 1.703125,-0.03125 2.21875,-0.015625 2.5625,0 L 2.5625,-0.3125 C 1.890625,-0.3125 1.78125,-0.3125 1.78125,-0.75 L 1.78125,-2.59375 C 1.78125,-3.625 2.5,-4.1875 3.125,-4.1875 C 3.765625,-4.1875 3.875,-3.65625 3.875,-3.078125 L 3.875,-0.75 C 3.875,-0.3125 3.765625,-0.3125 3.09375,-0.3125 L 3.09375,0 C 3.4375,-0.015625 3.953125,-0.03125 4.21875,-0.03125 C 4.46875,-0.03125 5,-0.015625 5.328125,0 L 5.328125,-0.3125 C 4.8125,-0.3125 4.5625,-0.3125 4.5625,-0.609375 L 4.5625,-2.515625 C 4.5625,-3.375 4.5625,-3.671875 4.25,-4.03125 C 4.109375,-4.203125 3.78125,-4.40625 3.203125,-4.40625 C 2.46875,-4.40625 2,-3.984375 1.71875,-3.359375 L 1.71875,-4.40625 L 0.3125,-4.296875 L 0.3125,-3.984375 C 1.015625,-3.984375 1.09375,-3.921875 1.09375,-3.421875 z"
               id="path13964"
               style="stroke:none" />
          </symbol>
        </g>
      </defs>
      <g
         id="textext-04c36ee7-11">
        <g
           id="g13967"
           style="fill:#000000;fill-opacity:1">
          <use
             id="use13969"
             x="223.43201"
             y="134.765"
             width="1052.3622"
             height="744.09448"
             xlink:href="#textext-04c36ee7-1" />
          <use
             id="use13971"
             x="231.04243"
             y="134.765"
             width="1052.3622"
             height="744.09448"
             xlink:href="#textext-04c36ee7-2" />
          <use
             id="use13973"
             x="235.4698"
             y="134.765"
             width="1052.3622"
             height="744.09448"
             xlink:href="#textext-04c36ee7-3" />
          <use
             id="use13975"
             x="239.89719"
             y="134.765"
             width="1052.3622"
             height="744.09448"
             xlink:href="#textext-04c36ee7-4" />
          <use
             id="use13977"
             x="243.79955"
             y="134.765"
             width="1052.3622"
             height="744.09448"
             xlink:href="#textext-04c36ee7-5" />
          <use
             id="use13979"
             x="249.0578"
             y="134.765"
             width="1052.3622"
             height="744.09448"
             xlink:href="#textext-04c36ee7-6" />
          <use
             id="use13981"
             x="254.59302"
             y="134.765"
             width="1052.3622"
             height="744.09448"
             xlink:href="#textext-04c36ee7-7" />
          <use
             id="use13983"
             x="258.46747"
             y="134.765"
             width="1052.3622"
             height="744.09448"
             xlink:href="#textext-04c36ee7-8" />
          <use
             id="use13985"
             x="261.23508"
             y="134.765"
             width="1052.3622"
             height="744.09448"
             xlink:href="#textext-04c36ee7-9" />
          <use
             id="use13987"
             x="266.2164"
             y="134.765"
             width="1052.3622"
             height="744.09448"
             xlink:href="#textext-04c36ee7-10" />
        </g>
      </g>
    </g>
  </g>
  <g
     transform="matrix(4,0,0,4,-832.25,-42.280518)"
     id="g10959">
    <defs
       id="defs10961">
      <g
         id="g10963">
        <symbol
           id="textext-2e5fffbc-0"
           style="overflow:visible">
          <path
             d=""
             id="path10966"
             style="stroke:none" />
        </symbol>
        <symbol
           id="textext-2e5fffbc-1"
           style="overflow:visible">
          <path
             d="M 3.015625,-3.15625 L 4.71875,-3.15625 C 6.125,-3.15625 7.515625,-4.1875 7.515625,-5.296875 C 7.515625,-6.078125 6.859375,-6.8125 5.546875,-6.8125 L 2.328125,-6.8125 C 2.140625,-6.8125 2.03125,-6.8125 2.03125,-6.625 C 2.03125,-6.5 2.109375,-6.5 2.3125,-6.5 C 2.4375,-6.5 2.625,-6.484375 2.734375,-6.484375 C 2.90625,-6.453125 2.953125,-6.4375 2.953125,-6.3125 C 2.953125,-6.28125 2.953125,-6.25 2.921875,-6.125 L 1.578125,-0.78125 C 1.484375,-0.390625 1.46875,-0.3125 0.671875,-0.3125 C 0.515625,-0.3125 0.40625,-0.3125 0.40625,-0.125 C 0.40625,0 0.515625,0 0.546875,0 C 0.828125,0 1.53125,-0.03125 1.8125,-0.03125 C 2.03125,-0.03125 2.25,-0.015625 2.453125,-0.015625 C 2.671875,-0.015625 2.890625,0 3.09375,0 C 3.171875,0 3.296875,0 3.296875,-0.203125 C 3.296875,-0.3125 3.203125,-0.3125 3.015625,-0.3125 C 2.65625,-0.3125 2.375,-0.3125 2.375,-0.484375 C 2.375,-0.546875 2.390625,-0.59375 2.40625,-0.65625 L 3.015625,-3.15625 z M 3.734375,-6.125 C 3.828125,-6.46875 3.84375,-6.5 4.28125,-6.5 L 5.234375,-6.5 C 6.0625,-6.5 6.59375,-6.234375 6.59375,-5.546875 C 6.59375,-5.15625 6.390625,-4.296875 6,-3.9375 C 5.5,-3.484375 4.90625,-3.40625 4.46875,-3.40625 L 3.0625,-3.40625 L 3.734375,-6.125 z"
             id="path10969"
             style="stroke:none" />
        </symbol>
      </g>
    </defs>
    <g
       id="textext-2e5fffbc-2">
      <g
         id="g10972"
         style="fill:#000000;fill-opacity:1">
        <use
           id="use10974"
           x="223.43201"
           y="134.765"
           width="1052.3622"
           height="744.09448"
           xlink:href="#textext-2e5fffbc-1" />
      </g>
    </g>
  </g>
  <g
     transform="matrix(4,0,0,4,61.125,-43.280518)"
     id="g11132">
    <defs
       id="defs11134">
      <g
         id="g11136">
        <symbol
           id="symbol11138"
           style="overflow:visible">
          <path
             d=""
             id="path11140"
             style="stroke:none" />
        </symbol>
        <symbol
           id="symbol11142"
           style="overflow:visible">
          <path
             d="M 3.015625,-3.15625 L 4.71875,-3.15625 C 6.125,-3.15625 7.515625,-4.1875 7.515625,-5.296875 C 7.515625,-6.078125 6.859375,-6.8125 5.546875,-6.8125 L 2.328125,-6.8125 C 2.140625,-6.8125 2.03125,-6.8125 2.03125,-6.625 C 2.03125,-6.5 2.109375,-6.5 2.3125,-6.5 C 2.4375,-6.5 2.625,-6.484375 2.734375,-6.484375 C 2.90625,-6.453125 2.953125,-6.4375 2.953125,-6.3125 C 2.953125,-6.28125 2.953125,-6.25 2.921875,-6.125 L 1.578125,-0.78125 C 1.484375,-0.390625 1.46875,-0.3125 0.671875,-0.3125 C 0.515625,-0.3125 0.40625,-0.3125 0.40625,-0.125 C 0.40625,0 0.515625,0 0.546875,0 C 0.828125,0 1.53125,-0.03125 1.8125,-0.03125 C 2.03125,-0.03125 2.25,-0.015625 2.453125,-0.015625 C 2.671875,-0.015625 2.890625,0 3.09375,0 C 3.171875,0 3.296875,0 3.296875,-0.203125 C 3.296875,-0.3125 3.203125,-0.3125 3.015625,-0.3125 C 2.65625,-0.3125 2.375,-0.3125 2.375,-0.484375 C 2.375,-0.546875 2.390625,-0.59375 2.40625,-0.65625 L 3.015625,-3.15625 z M 3.734375,-6.125 C 3.828125,-6.46875 3.84375,-6.5 4.28125,-6.5 L 5.234375,-6.5 C 6.0625,-6.5 6.59375,-6.234375 6.59375,-5.546875 C 6.59375,-5.15625 6.390625,-4.296875 6,-3.9375 C 5.5,-3.484375 4.90625,-3.40625 4.46875,-3.40625 L 3.0625,-3.40625 L 3.734375,-6.125 z"
             id="path11144"
             style="stroke:none" />
        </symbol>
      </g>
    </defs>
    <g
       id="g11146">
      <g
         id="g11148"
         style="fill:#000000;fill-opacity:1">
        <use
           id="use11150"
           x="223.43201"
           y="134.765"
           width="1052.3622"
           height="744.09448"
           xlink:href="#textext-2e5fffbc-1" />
      </g>
    </g>
  </g>
  <g
     transform="matrix(4,0,0,4,-447.8125,-18.343018)"
     id="g11320">
    <defs
       id="defs11322">
      <g
         id="g11324">
        <symbol
           id="textext-a9063e98-0"
           style="overflow:visible">
          <path
             d=""
             id="path11327"
             style="stroke:none" />
        </symbol>
        <symbol
           id="textext-a9063e98-1"
           style="overflow:visible">
          <path
             d="M 7.578125,-6.921875 C 7.578125,-6.953125 7.5625,-7.03125 7.46875,-7.03125 C 7.4375,-7.03125 7.421875,-7.015625 7.3125,-6.90625 L 6.625,-6.140625 C 6.53125,-6.28125 6.078125,-7.03125 4.96875,-7.03125 C 2.734375,-7.03125 0.5,-4.828125 0.5,-2.515625 C 0.5,-0.875 1.671875,0.21875 3.203125,0.21875 C 4.0625,0.21875 4.828125,-0.171875 5.359375,-0.640625 C 6.28125,-1.453125 6.453125,-2.359375 6.453125,-2.390625 C 6.453125,-2.5 6.34375,-2.5 6.328125,-2.5 C 6.265625,-2.5 6.21875,-2.46875 6.203125,-2.390625 C 6.109375,-2.109375 5.875,-1.390625 5.1875,-0.8125 C 4.5,-0.265625 3.875,-0.09375 3.359375,-0.09375 C 2.46875,-0.09375 1.40625,-0.609375 1.40625,-2.15625 C 1.40625,-2.734375 1.609375,-4.34375 2.609375,-5.515625 C 3.21875,-6.21875 4.15625,-6.71875 5.046875,-6.71875 C 6.0625,-6.71875 6.65625,-5.953125 6.65625,-4.796875 C 6.65625,-4.390625 6.625,-4.390625 6.625,-4.28125 C 6.625,-4.1875 6.734375,-4.1875 6.765625,-4.1875 C 6.890625,-4.1875 6.890625,-4.203125 6.953125,-4.390625 L 7.578125,-6.921875 z"
             id="path11330"
             style="stroke:none" />
        </symbol>
      </g>
    </defs>
    <g
       id="textext-a9063e98-2">
      <g
         id="g11333"
         style="fill:#000000;fill-opacity:1">
        <use
           id="use11335"
           x="223.43201"
           y="134.765"
           width="1052.3622"
           height="744.09448"
           xlink:href="#textext-a9063e98-1" />
      </g>
    </g>
  </g>
  <g
     transform="matrix(4,0,0,4,-343.8125,-18.343018)"
     id="g11513">
    <defs
       id="defs11515">
      <g
         id="g11517">
        <symbol
           id="symbol11519"
           style="overflow:visible">
          <path
             d=""
             id="path11521"
             style="stroke:none" />
        </symbol>
        <symbol
           id="symbol11523"
           style="overflow:visible">
          <path
             d="M 7.578125,-6.921875 C 7.578125,-6.953125 7.5625,-7.03125 7.46875,-7.03125 C 7.4375,-7.03125 7.421875,-7.015625 7.3125,-6.90625 L 6.625,-6.140625 C 6.53125,-6.28125 6.078125,-7.03125 4.96875,-7.03125 C 2.734375,-7.03125 0.5,-4.828125 0.5,-2.515625 C 0.5,-0.875 1.671875,0.21875 3.203125,0.21875 C 4.0625,0.21875 4.828125,-0.171875 5.359375,-0.640625 C 6.28125,-1.453125 6.453125,-2.359375 6.453125,-2.390625 C 6.453125,-2.5 6.34375,-2.5 6.328125,-2.5 C 6.265625,-2.5 6.21875,-2.46875 6.203125,-2.390625 C 6.109375,-2.109375 5.875,-1.390625 5.1875,-0.8125 C 4.5,-0.265625 3.875,-0.09375 3.359375,-0.09375 C 2.46875,-0.09375 1.40625,-0.609375 1.40625,-2.15625 C 1.40625,-2.734375 1.609375,-4.34375 2.609375,-5.515625 C 3.21875,-6.21875 4.15625,-6.71875 5.046875,-6.71875 C 6.0625,-6.71875 6.65625,-5.953125 6.65625,-4.796875 C 6.65625,-4.390625 6.625,-4.390625 6.625,-4.28125 C 6.625,-4.1875 6.734375,-4.1875 6.765625,-4.1875 C 6.890625,-4.1875 6.890625,-4.203125 6.953125,-4.390625 L 7.578125,-6.921875 z"
             id="path11525"
             style="stroke:none" />
        </symbol>
      </g>
    </defs>
    <g
       id="g11527">
      <g
         id="g11529"
         style="fill:#000000;fill-opacity:1">
        <use
           id="use11531"
           x="223.43201"
           y="134.765"
           width="1052.3622"
           height="744.09448"
           xlink:href="#textext-a9063e98-1" />
      </g>
    </g>
  </g>
  <g
     transform="scale(4,4)"
     id="g11721">
    <defs
       id="defs11723">
      <g
         id="g11725">
        <symbol
           id="textext-4a4d1f82-0"
           style="overflow:visible">
          <path
             d=""
             id="path11728"
             style="stroke:none" />
        </symbol>
        <symbol
           id="textext-4a4d1f82-1"
           style="overflow:visible">
          <path
             d="M 0.875,-0.59375 C 0.84375,-0.4375 0.78125,-0.203125 0.78125,-0.15625 C 0.78125,0.015625 0.921875,0.109375 1.078125,0.109375 C 1.203125,0.109375 1.375,0.03125 1.453125,-0.171875 C 1.453125,-0.1875 1.578125,-0.65625 1.640625,-0.90625 C 1.703125,-1.203125 1.78125,-1.5 1.859375,-1.796875 C 1.90625,-2.03125 1.96875,-2.25 2.03125,-2.46875 C 2.0625,-2.640625 2.140625,-2.9375 2.15625,-2.96875 C 2.296875,-3.28125 2.828125,-4.1875 3.78125,-4.1875 C 4.234375,-4.1875 4.3125,-3.8125 4.3125,-3.484375 C 4.3125,-3.234375 4.25,-2.953125 4.171875,-2.65625 C 4.046875,-2.15625 4,-1.953125 3.890625,-1.5 C 3.78125,-1.140625 3.78125,-1.078125 3.6875,-0.75 C 3.65625,-0.546875 3.5625,-0.203125 3.5625,-0.15625 C 3.5625,0.015625 3.703125,0.109375 3.84375,0.109375 C 4.15625,0.109375 4.21875,-0.140625 4.296875,-0.453125 C 4.4375,-1.015625 4.8125,-2.46875 4.890625,-2.859375 C 4.921875,-2.984375 5.453125,-4.1875 6.546875,-4.1875 C 6.96875,-4.1875 7.078125,-3.84375 7.078125,-3.484375 C 7.078125,-2.921875 6.65625,-1.78125 6.453125,-1.25 C 6.375,-1.015625 6.328125,-0.90625 6.328125,-0.703125 C 6.328125,-0.234375 6.671875,0.109375 7.140625,0.109375 C 8.078125,0.109375 8.453125,-1.34375 8.453125,-1.421875 C 8.453125,-1.53125 8.359375,-1.53125 8.328125,-1.53125 C 8.234375,-1.53125 8.234375,-1.5 8.1875,-1.34375 C 8.03125,-0.8125 7.71875,-0.109375 7.171875,-0.109375 C 7,-0.109375 6.921875,-0.203125 6.921875,-0.4375 C 6.921875,-0.6875 7.015625,-0.921875 7.109375,-1.140625 C 7.296875,-1.671875 7.71875,-2.765625 7.71875,-3.34375 C 7.71875,-3.984375 7.3125,-4.40625 6.5625,-4.40625 C 5.828125,-4.40625 5.3125,-3.96875 4.9375,-3.4375 C 4.9375,-3.5625 4.90625,-3.90625 4.625,-4.140625 C 4.375,-4.359375 4.0625,-4.40625 3.8125,-4.40625 C 2.90625,-4.40625 2.421875,-3.765625 2.25,-3.53125 C 2.203125,-4.109375 1.78125,-4.40625 1.328125,-4.40625 C 0.875,-4.40625 0.6875,-4.015625 0.59375,-3.84375 C 0.421875,-3.484375 0.296875,-2.90625 0.296875,-2.875 C 0.296875,-2.765625 0.390625,-2.765625 0.40625,-2.765625 C 0.515625,-2.765625 0.515625,-2.78125 0.578125,-3 C 0.75,-3.703125 0.953125,-4.1875 1.3125,-4.1875 C 1.46875,-4.1875 1.609375,-4.109375 1.609375,-3.734375 C 1.609375,-3.515625 1.578125,-3.40625 1.453125,-2.890625 L 0.875,-0.59375 z"
             id="path11731"
             style="stroke:none" />
        </symbol>
        <symbol
           id="textext-4a4d1f82-2"
           style="overflow:visible">
          <path
             d="M 3.71875,-3.765625 C 3.53125,-4.140625 3.25,-4.40625 2.796875,-4.40625 C 1.640625,-4.40625 0.40625,-2.9375 0.40625,-1.484375 C 0.40625,-0.546875 0.953125,0.109375 1.71875,0.109375 C 1.921875,0.109375 2.421875,0.0625 3.015625,-0.640625 C 3.09375,-0.21875 3.453125,0.109375 3.921875,0.109375 C 4.28125,0.109375 4.5,-0.125 4.671875,-0.4375 C 4.828125,-0.796875 4.96875,-1.40625 4.96875,-1.421875 C 4.96875,-1.53125 4.875,-1.53125 4.84375,-1.53125 C 4.75,-1.53125 4.734375,-1.484375 4.703125,-1.34375 C 4.53125,-0.703125 4.359375,-0.109375 3.953125,-0.109375 C 3.671875,-0.109375 3.65625,-0.375 3.65625,-0.5625 C 3.65625,-0.78125 3.671875,-0.875 3.78125,-1.3125 C 3.890625,-1.71875 3.90625,-1.828125 4,-2.203125 C 4.171875,-2.84375 4.203125,-3.03125 4.359375,-3.59375 C 4.421875,-3.875 4.421875,-3.890625 4.421875,-3.9375 C 4.421875,-4.109375 4.3125,-4.203125 4.140625,-4.203125 C 3.890625,-4.203125 3.75,-3.984375 3.71875,-3.765625 z M 3.078125,-1.1875 C 3.015625,-1 3.015625,-0.984375 2.875,-0.8125 C 2.4375,-0.265625 2.03125,-0.109375 1.75,-0.109375 C 1.25,-0.109375 1.109375,-0.65625 1.109375,-1.046875 C 1.109375,-1.546875 1.421875,-2.765625 1.65625,-3.234375 C 1.96875,-3.8125 2.40625,-4.1875 2.8125,-4.1875 C 3.453125,-4.1875 3.59375,-3.375 3.59375,-3.3125 C 3.59375,-3.25 3.578125,-3.1875 3.5625,-3.140625 L 3.078125,-1.1875 z"
             id="path11734"
             style="stroke:none" />
        </symbol>
        <symbol
           id="textext-4a4d1f82-3"
           style="overflow:visible">
          <path
             d="M 2.046875,-3.984375 L 2.984375,-3.984375 C 3.1875,-3.984375 3.296875,-3.984375 3.296875,-4.1875 C 3.296875,-4.296875 3.1875,-4.296875 3.015625,-4.296875 L 2.140625,-4.296875 C 2.5,-5.71875 2.546875,-5.90625 2.546875,-5.96875 C 2.546875,-6.140625 2.421875,-6.234375 2.25,-6.234375 C 2.21875,-6.234375 1.9375,-6.234375 1.859375,-5.875 L 1.46875,-4.296875 L 0.53125,-4.296875 C 0.328125,-4.296875 0.234375,-4.296875 0.234375,-4.109375 C 0.234375,-3.984375 0.3125,-3.984375 0.515625,-3.984375 L 1.390625,-3.984375 C 0.671875,-1.15625 0.625,-0.984375 0.625,-0.8125 C 0.625,-0.265625 1,0.109375 1.546875,0.109375 C 2.5625,0.109375 3.125,-1.34375 3.125,-1.421875 C 3.125,-1.53125 3.046875,-1.53125 3.015625,-1.53125 C 2.921875,-1.53125 2.90625,-1.5 2.859375,-1.390625 C 2.4375,-0.34375 1.90625,-0.109375 1.5625,-0.109375 C 1.359375,-0.109375 1.25,-0.234375 1.25,-0.5625 C 1.25,-0.8125 1.28125,-0.875 1.3125,-1.046875 L 2.046875,-3.984375 z"
             id="path11737"
             style="stroke:none" />
        </symbol>
        <symbol
           id="textext-4a4d1f82-4"
           style="overflow:visible">
          <path
             d="M 2.859375,-6.8125 C 2.859375,-6.8125 2.859375,-6.921875 2.734375,-6.921875 C 2.5,-6.921875 1.78125,-6.84375 1.515625,-6.8125 C 1.4375,-6.8125 1.328125,-6.796875 1.328125,-6.625 C 1.328125,-6.5 1.421875,-6.5 1.5625,-6.5 C 2.046875,-6.5 2.0625,-6.4375 2.0625,-6.328125 L 2.03125,-6.125 L 0.59375,-0.390625 C 0.546875,-0.25 0.546875,-0.234375 0.546875,-0.171875 C 0.546875,0.0625 0.75,0.109375 0.84375,0.109375 C 1,0.109375 1.15625,-0.015625 1.203125,-0.15625 L 1.390625,-0.90625 C 1.46875,-1.203125 1.546875,-1.5 1.609375,-1.796875 C 1.671875,-2.03125 1.734375,-2.25 1.78125,-2.46875 C 1.796875,-2.53125 1.890625,-2.859375 1.890625,-2.921875 C 1.921875,-3.015625 2.234375,-3.5625 2.578125,-3.84375 C 2.796875,-4 3.09375,-4.1875 3.53125,-4.1875 C 3.953125,-4.1875 4.0625,-3.84375 4.0625,-3.484375 C 4.0625,-2.953125 3.6875,-1.859375 3.453125,-1.25 C 3.375,-1.03125 3.3125,-0.90625 3.3125,-0.703125 C 3.3125,-0.234375 3.671875,0.109375 4.140625,0.109375 C 5.078125,0.109375 5.4375,-1.34375 5.4375,-1.421875 C 5.4375,-1.53125 5.359375,-1.53125 5.328125,-1.53125 C 5.21875,-1.53125 5.21875,-1.5 5.171875,-1.34375 C 5.03125,-0.8125 4.703125,-0.109375 4.15625,-0.109375 C 3.984375,-0.109375 3.921875,-0.203125 3.921875,-0.4375 C 3.921875,-0.6875 4,-0.921875 4.09375,-1.140625 C 4.25,-1.578125 4.703125,-2.765625 4.703125,-3.34375 C 4.703125,-3.984375 4.3125,-4.40625 3.5625,-4.40625 C 2.9375,-4.40625 2.453125,-4.09375 2.078125,-3.640625 L 2.859375,-6.8125 z"
             id="path11740"
             style="stroke:none" />
        </symbol>
        <symbol
           id="textext-4a4d1f82-5"
           style="overflow:visible">
          <path
             d="M 3.953125,-3.78125 C 3.78125,-3.78125 3.65625,-3.78125 3.515625,-3.65625 C 3.34375,-3.5 3.328125,-3.328125 3.328125,-3.265625 C 3.328125,-3.015625 3.515625,-2.90625 3.703125,-2.90625 C 3.984375,-2.90625 4.25,-3.15625 4.25,-3.546875 C 4.25,-4.03125 3.78125,-4.40625 3.078125,-4.40625 C 1.734375,-4.40625 0.40625,-2.984375 0.40625,-1.578125 C 0.40625,-0.671875 0.984375,0.109375 2.03125,0.109375 C 3.453125,0.109375 4.28125,-0.953125 4.28125,-1.0625 C 4.28125,-1.125 4.234375,-1.203125 4.171875,-1.203125 C 4.109375,-1.203125 4.09375,-1.171875 4.03125,-1.09375 C 3.25,-0.109375 2.15625,-0.109375 2.046875,-0.109375 C 1.421875,-0.109375 1.140625,-0.59375 1.140625,-1.203125 C 1.140625,-1.609375 1.34375,-2.578125 1.6875,-3.1875 C 2,-3.765625 2.546875,-4.1875 3.09375,-4.1875 C 3.421875,-4.1875 3.8125,-4.0625 3.953125,-3.78125 z"
             id="path11743"
             style="stroke:none" />
        </symbol>
        <symbol
           id="textext-4a4d1f82-6"
           style="overflow:visible">
          <path
             d="M 2.578125,-6.8125 C 2.578125,-6.8125 2.578125,-6.921875 2.4375,-6.921875 C 2.21875,-6.921875 1.484375,-6.84375 1.21875,-6.8125 C 1.140625,-6.8125 1.03125,-6.796875 1.03125,-6.609375 C 1.03125,-6.5 1.140625,-6.5 1.28125,-6.5 C 1.765625,-6.5 1.78125,-6.40625 1.78125,-6.328125 L 1.75,-6.125 L 0.484375,-1.140625 C 0.453125,-1.03125 0.4375,-0.96875 0.4375,-0.8125 C 0.4375,-0.234375 0.875,0.109375 1.34375,0.109375 C 1.671875,0.109375 1.921875,-0.09375 2.09375,-0.453125 C 2.265625,-0.828125 2.390625,-1.40625 2.390625,-1.421875 C 2.390625,-1.53125 2.296875,-1.53125 2.265625,-1.53125 C 2.171875,-1.53125 2.15625,-1.484375 2.140625,-1.34375 C 1.96875,-0.703125 1.78125,-0.109375 1.375,-0.109375 C 1.078125,-0.109375 1.078125,-0.421875 1.078125,-0.5625 C 1.078125,-0.8125 1.09375,-0.859375 1.140625,-1.046875 L 2.578125,-6.8125 z"
             id="path11746"
             style="stroke:none" />
        </symbol>
        <symbol
           id="textext-4a4d1f82-7"
           style="overflow:visible">
          <path
             d="M 1.78125,-1.140625 C 1.390625,-0.484375 1,-0.34375 0.5625,-0.3125 C 0.4375,-0.296875 0.34375,-0.296875 0.34375,-0.109375 C 0.34375,-0.046875 0.40625,0 0.484375,0 C 0.75,0 1.0625,-0.03125 1.328125,-0.03125 C 1.671875,-0.03125 2.015625,0 2.328125,0 C 2.390625,0 2.515625,0 2.515625,-0.1875 C 2.515625,-0.296875 2.4375,-0.3125 2.359375,-0.3125 C 2.140625,-0.328125 1.890625,-0.40625 1.890625,-0.65625 C 1.890625,-0.78125 1.953125,-0.890625 2.03125,-1.03125 C 2.109375,-1.140625 2.109375,-1.140625 2.796875,-2.296875 L 5.296875,-2.296875 C 5.3125,-2.09375 5.453125,-0.734375 5.453125,-0.640625 C 5.453125,-0.34375 4.9375,-0.3125 4.734375,-0.3125 C 4.59375,-0.3125 4.5,-0.3125 4.5,-0.109375 C 4.5,0 4.609375,0 4.640625,0 C 5.046875,0 5.46875,-0.03125 5.875,-0.03125 C 6.125,-0.03125 6.765625,0 7.015625,0 C 7.0625,0 7.1875,0 7.1875,-0.203125 C 7.1875,-0.3125 7.09375,-0.3125 6.953125,-0.3125 C 6.34375,-0.3125 6.34375,-0.375 6.3125,-0.671875 L 5.703125,-6.890625 C 5.6875,-7.09375 5.6875,-7.140625 5.515625,-7.140625 C 5.359375,-7.140625 5.3125,-7.0625 5.25,-6.96875 L 1.78125,-1.140625 z M 2.984375,-2.609375 L 4.9375,-5.90625 L 5.265625,-2.609375 L 2.984375,-2.609375 z"
             id="path11749"
             style="stroke:none" />
        </symbol>
      </g>
    </defs>
    <g
       transform="scale(4,4)"
       id="g12206">
      <defs
         id="defs12208">
        <g
           id="g12210">
          <symbol
             id="textext-769c6748-0"
             style="overflow:visible">
            <path
               d=""
               id="path12213"
               style="stroke:none" />
          </symbol>
          <symbol
             id="textext-769c6748-1"
             style="overflow:visible">
            <path
               d="M 5.9375,-1.640625 C 5.984375,-1.015625 6.09375,-0.5625 6.15625,-0.375 C 6.265625,0.09375 6.3125,0.296875 6.75,0.296875 C 7.171875,0.296875 7.953125,-0.140625 7.953125,-0.34375 C 7.953125,-0.40625 7.921875,-0.421875 7.859375,-0.421875 C 7.78125,-0.421875 7.609375,-0.359375 7.46875,-0.28125 C 7.421875,-0.25 7.40625,-0.25 7.390625,-0.25 C 7.296875,-0.25 7.140625,-0.3125 7.09375,-0.46875 C 6.578125,-2.09375 6.578125,-5.828125 6.578125,-6.265625 C 6.578125,-6.5625 6.59375,-6.875 6.59375,-7.171875 C 6.578125,-7.171875 6.546875,-7.203125 6.484375,-7.203125 C 6.3125,-7.203125 6.0625,-7.03125 6.015625,-7.015625 C 5.78125,-6.859375 5.765625,-6.8125 5.734375,-6.65625 C 5.734375,-6.640625 5.6875,-6.640625 5.6875,-6.625 C 5.65625,-6.609375 5.65625,-6.59375 5.59375,-6.46875 C 5.328125,-5.90625 4.765625,-4.71875 3.734375,-3.109375 C 3.203125,-2.265625 2.03125,-0.421875 1.46875,-0.421875 C 1.28125,-0.421875 0.828125,-0.546875 0.703125,-1.015625 C 0.671875,-1.09375 0.65625,-1.09375 0.625,-1.09375 C 0.484375,-1.09375 0.265625,-0.609375 0.265625,-0.34375 C 0.265625,0.109375 0.75,0.5 1.171875,0.5 C 1.71875,0.5 2.375,-0.421875 3.21875,-1.640625 L 5.9375,-1.640625 z M 5.875,-2.1875 L 4.03125,-2.1875 C 3.890625,-2.1875 3.734375,-2.1875 3.484375,-2.03125 C 4.625,-3.875 4.96875,-4.421875 5.71875,-5.96875 L 5.734375,-5.96875 L 5.734375,-5.375 C 5.734375,-4.859375 5.75,-4.125 5.78125,-3.625 L 5.875,-2.1875 z"
               id="path12216"
               style="stroke:none" />
          </symbol>
        </g>
      </defs>
      <g
         id="textext-769c6748-2">
        <g
           id="g12219"
           style="fill:#000000;fill-opacity:1">
          <use
             id="use12221"
             x="223.43201"
             y="134.765"
             width="1052.3622"
             height="744.09448"
             xlink:href="#textext-769c6748-1" />
        </g>
      </g>
    </g>
  </g>
  <g
     transform="matrix(4,0,0,4,-642.875,-212.03052)"
     id="g12666">
    <defs
       id="defs12668">
      <g
         id="g12670">
        <symbol
           id="textext-2fbe424f-0"
           style="overflow:visible">
          <path
             d=""
             id="path12673"
             style="stroke:none" />
        </symbol>
        <symbol
           id="textext-2fbe424f-1"
           style="overflow:visible">
          <path
             d="M 5.9375,-1.640625 C 5.984375,-1.015625 6.09375,-0.5625 6.15625,-0.375 C 6.265625,0.09375 6.3125,0.296875 6.75,0.296875 C 7.171875,0.296875 7.953125,-0.140625 7.953125,-0.34375 C 7.953125,-0.40625 7.921875,-0.421875 7.859375,-0.421875 C 7.78125,-0.421875 7.609375,-0.359375 7.46875,-0.28125 C 7.421875,-0.25 7.40625,-0.25 7.390625,-0.25 C 7.296875,-0.25 7.140625,-0.3125 7.09375,-0.46875 C 6.578125,-2.09375 6.578125,-5.828125 6.578125,-6.265625 C 6.578125,-6.5625 6.59375,-6.875 6.59375,-7.171875 C 6.578125,-7.171875 6.546875,-7.203125 6.484375,-7.203125 C 6.3125,-7.203125 6.0625,-7.03125 6.015625,-7.015625 C 5.78125,-6.859375 5.765625,-6.8125 5.734375,-6.65625 C 5.734375,-6.640625 5.6875,-6.640625 5.6875,-6.625 C 5.65625,-6.609375 5.65625,-6.59375 5.59375,-6.46875 C 5.328125,-5.90625 4.765625,-4.71875 3.734375,-3.109375 C 3.203125,-2.265625 2.03125,-0.421875 1.46875,-0.421875 C 1.28125,-0.421875 0.828125,-0.546875 0.703125,-1.015625 C 0.671875,-1.09375 0.65625,-1.09375 0.625,-1.09375 C 0.484375,-1.09375 0.265625,-0.609375 0.265625,-0.34375 C 0.265625,0.109375 0.75,0.5 1.171875,0.5 C 1.71875,0.5 2.375,-0.421875 3.21875,-1.640625 L 5.9375,-1.640625 z M 5.875,-2.1875 L 4.03125,-2.1875 C 3.890625,-2.1875 3.734375,-2.1875 3.484375,-2.03125 C 4.625,-3.875 4.96875,-4.421875 5.71875,-5.96875 L 5.734375,-5.96875 L 5.734375,-5.375 C 5.734375,-4.859375 5.75,-4.125 5.78125,-3.625 L 5.875,-2.1875 z"
             id="path12676"
             style="stroke:none" />
        </symbol>
      </g>
    </defs>
    <g
       id="textext-2fbe424f-2">
      <g
         id="g12679"
         style="fill:#000000;fill-opacity:1">
        <use
           id="use12681"
           x="223.43201"
           y="134.765"
           width="1052.3622"
           height="744.09448"
           xlink:href="#textext-2fbe424f-1" />
      </g>
    </g>
  </g>
  <g
     transform="matrix(4,0,0,4,-142.9375,-214.40552)"
     id="g12908">
    <defs
       id="defs12910">
      <g
         id="g12912">
        <symbol
           id="symbol12914"
           style="overflow:visible">
          <path
             d=""
             id="path12916"
             style="stroke:none" />
        </symbol>
        <symbol
           id="symbol12918"
           style="overflow:visible">
          <path
             d="M 5.9375,-1.640625 C 5.984375,-1.015625 6.09375,-0.5625 6.15625,-0.375 C 6.265625,0.09375 6.3125,0.296875 6.75,0.296875 C 7.171875,0.296875 7.953125,-0.140625 7.953125,-0.34375 C 7.953125,-0.40625 7.921875,-0.421875 7.859375,-0.421875 C 7.78125,-0.421875 7.609375,-0.359375 7.46875,-0.28125 C 7.421875,-0.25 7.40625,-0.25 7.390625,-0.25 C 7.296875,-0.25 7.140625,-0.3125 7.09375,-0.46875 C 6.578125,-2.09375 6.578125,-5.828125 6.578125,-6.265625 C 6.578125,-6.5625 6.59375,-6.875 6.59375,-7.171875 C 6.578125,-7.171875 6.546875,-7.203125 6.484375,-7.203125 C 6.3125,-7.203125 6.0625,-7.03125 6.015625,-7.015625 C 5.78125,-6.859375 5.765625,-6.8125 5.734375,-6.65625 C 5.734375,-6.640625 5.6875,-6.640625 5.6875,-6.625 C 5.65625,-6.609375 5.65625,-6.59375 5.59375,-6.46875 C 5.328125,-5.90625 4.765625,-4.71875 3.734375,-3.109375 C 3.203125,-2.265625 2.03125,-0.421875 1.46875,-0.421875 C 1.28125,-0.421875 0.828125,-0.546875 0.703125,-1.015625 C 0.671875,-1.09375 0.65625,-1.09375 0.625,-1.09375 C 0.484375,-1.09375 0.265625,-0.609375 0.265625,-0.34375 C 0.265625,0.109375 0.75,0.5 1.171875,0.5 C 1.71875,0.5 2.375,-0.421875 3.21875,-1.640625 L 5.9375,-1.640625 z M 5.875,-2.1875 L 4.03125,-2.1875 C 3.890625,-2.1875 3.734375,-2.1875 3.484375,-2.03125 C 4.625,-3.875 4.96875,-4.421875 5.71875,-5.96875 L 5.734375,-5.96875 L 5.734375,-5.375 C 5.734375,-4.859375 5.75,-4.125 5.78125,-3.625 L 5.875,-2.1875 z"
             id="path12920"
             style="stroke:none" />
        </symbol>
      </g>
    </defs>
    <g
       id="g12922">
      <g
         id="g12924"
         style="fill:#000000;fill-opacity:1">
        <use
           id="use12926"
           x="223.43201"
           y="134.765"
           width="1052.3622"
           height="744.09448"
           xlink:href="#textext-2fbe424f-1" />
      </g>
    </g>
  </g>
</svg>
